<?xml version="1.0" encoding="utf-8"?>
<!-- Generator: Adobe Illustrator 25.0.1, SVG Export Plug-In . SVG Version: 6.00 Build 0)  -->
<svg version="1.1" id="Laag_1" xmlns="http://www.w3.org/2000/svg" xmlns:xlink="http://www.w3.org/1999/xlink" x="0px" y="0px"
	 viewBox="0 0 3074.88 2758.08" style="enable-background:new 0 0 3074.88 2758.08;" xml:space="preserve">
<style type="text/css">
	.st0{fill:#005FAB;}
	.st1{fill:#FFFFFF;}
	.st2{fill:#565655;}
</style>
<g>
	<path class="st0" d="M2033.19,525.23c-132.44-132.44-308.84-205.32-496.23-205.32s-363.21,72.87-495.65,205.32
		C908.87,657.67,836,834.07,836,1021.45s72.87,363.78,205.32,496.23c132.44,132.44,308.84,205.32,496.23,205.32
		s363.78-72.87,496.23-205.32s205.32-308.84,205.32-496.23S2165.63,657.67,2033.19,525.23L2033.19,525.23z"/>
	<path class="st0" d="M1536.96,1751.34c-403.11,0-730.46-326.77-730.46-730.46s327.35-729.88,730.46-729.88
		s730.46,326.77,730.46,730.46S1940.65,1751.34,1536.96,1751.34z M1536.96,247.04c-427.4,0-773.84,346.43-773.84,773.84
		s346.43,773.84,773.84,773.84s773.84-346.43,773.84-773.84S1964.94,247.04,1536.96,247.04z"/>
	<path class="st1" d="M1890.28,1083.14h-705.99v-67.79h705.99L1890.28,1083.14L1890.28,1083.14z M1860.35,1142.34H1213.8v-40.68
		h646.55V1142.34z M1890.28,1228.68h-705.99v-67.79h705.99L1890.28,1228.68L1890.28,1228.68z M1860.35,1287.89H1213.8v-40.68h646.55
		V1287.89z M1890.28,1374.22h-705.99v-67.8h705.99L1890.28,1374.22L1890.28,1374.22z M1223.07,902.74
		c0-21.98,9.92-43.01,27.22-57.68c22.16-18.77,34.86-45.7,34.86-73.88v-56.04h40.62v58.88c0,26.97,12.19,52.62,34.33,72.22
		c16.71,14.78,25.9,34.84,25.9,56.49v94.07h-162.93V902.74z M1274.52,668.12h60.02v28.5h-60.02V668.12z M1455.62,902.74
		c0-21.99,9.92-43.01,27.23-57.68c22.16-18.77,34.86-45.7,34.86-73.88v-56.04h40.62v58.88c0,26.97,12.19,52.62,34.32,72.22
		c16.71,14.78,25.91,34.84,25.91,56.49v94.07h-162.94V902.74z M1507.07,668.12h60.02v28.5h-60.02V668.12z M1688.16,902.74
		c0-21.99,9.92-43.01,27.23-57.68c22.16-18.77,34.86-45.7,34.86-73.88v-56.04h40.61v58.88c0,26.97,12.19,52.62,34.33,72.22
		c16.71,14.78,25.9,34.84,25.9,56.49v94.07h-162.93V902.74z M1739.62,668.12h60.02v28.5h-60.02V668.12z M1899.55,996.81h-29.92
		v-94.07c0-26.64-11.72-52.29-32.15-70.37c-18.12-16.03-28.09-36.75-28.09-58.34V712.8c5.22-3,8.79-8.56,8.79-15v-30.84
		c0-0.57-0.03-1.14-0.09-1.7c-0.06-0.57-0.14-1.13-0.25-1.68c-0.11-0.56-0.25-1.11-0.42-1.65c-0.17-0.54-0.36-1.08-0.58-1.6
		c-0.22-0.53-0.46-1.04-0.73-1.54s-0.56-0.99-0.88-1.46c-0.32-0.47-0.65-0.93-1.02-1.37s-0.74-0.86-1.14-1.26
		c-0.4-0.4-0.82-0.78-1.26-1.14c-0.44-0.36-0.9-0.7-1.37-1.02c-0.47-0.32-0.96-0.61-1.46-0.88s-1.01-0.51-1.54-0.73
		c-0.53-0.22-1.06-0.41-1.6-0.58c-0.54-0.17-1.09-0.3-1.65-0.42c-0.56-0.11-1.12-0.2-1.68-0.25s-1.13-0.09-1.7-0.09h-62.36
		c-0.57,0-1.14,0.03-1.7,0.09c-0.57,0.06-1.13,0.14-1.68,0.25s-1.11,0.25-1.65,0.42s-1.08,0.36-1.6,0.58
		c-0.52,0.22-1.04,0.46-1.54,0.73s-0.99,0.56-1.46,0.88c-0.47,0.32-0.93,0.65-1.37,1.02c-0.44,0.36-0.86,0.74-1.26,1.14
		s-0.78,0.82-1.14,1.26c-0.36,0.44-0.7,0.9-1.01,1.37s-0.61,0.96-0.88,1.46s-0.51,1.01-0.73,1.54c-0.22,0.53-0.41,1.06-0.57,1.6
		c-0.17,0.54-0.3,1.09-0.42,1.65c-0.11,0.56-0.2,1.12-0.25,1.68c-0.06,0.57-0.08,1.13-0.09,1.7v30.84c0,7.19,4.38,13.37,10.62,16
		v57.4c0,22.71-10.31,44.49-28.31,59.73c-21.46,18.19-33.78,44.36-33.78,71.81v94.07h-32.55v-94.07c0-26.63-11.72-52.29-32.16-70.37
		c-18.11-16.02-28.08-36.74-28.08-58.34V712.8c5.22-3,8.78-8.56,8.78-15v-30.84c0-0.57-0.03-1.14-0.09-1.7
		c-0.06-0.57-0.14-1.13-0.25-1.68c-0.11-0.56-0.25-1.11-0.42-1.65c-0.17-0.54-0.36-1.08-0.58-1.6c-0.22-0.53-0.46-1.04-0.73-1.54
		s-0.56-0.99-0.88-1.46c-0.32-0.47-0.65-0.93-1.02-1.37s-0.74-0.86-1.14-1.26c-0.4-0.4-0.82-0.78-1.26-1.14s-0.9-0.7-1.37-1.02
		c-0.47-0.32-0.96-0.61-1.46-0.88s-1.01-0.51-1.54-0.73s-1.06-0.41-1.6-0.58c-0.54-0.17-1.09-0.3-1.65-0.42
		c-0.56-0.11-1.12-0.2-1.68-0.25c-0.57-0.06-1.13-0.09-1.7-0.09h-62.36c-0.57,0-1.14,0.03-1.7,0.09c-0.57,0.06-1.13,0.14-1.68,0.25
		s-1.11,0.25-1.65,0.42c-0.54,0.17-1.08,0.36-1.6,0.58c-0.53,0.22-1.04,0.46-1.54,0.73c-0.5,0.27-0.99,0.56-1.46,0.88
		s-0.93,0.65-1.37,1.02s-0.86,0.74-1.26,1.14c-0.4,0.4-0.78,0.82-1.14,1.26c-0.36,0.44-0.7,0.9-1.02,1.37
		c-0.32,0.47-0.61,0.96-0.88,1.46c-0.27,0.5-0.51,1.01-0.73,1.54c-0.22,0.52-0.41,1.06-0.58,1.6c-0.17,0.54-0.3,1.09-0.42,1.65
		c-0.11,0.56-0.2,1.12-0.25,1.68c-0.06,0.57-0.09,1.13-0.09,1.7v30.84c0,7.18,4.39,13.36,10.62,16v57.4
		c0,22.72-10.31,44.49-28.31,59.73c-21.46,18.19-33.78,44.36-33.78,71.81v94.07h-32.55v-94.07c0-26.64-11.72-52.29-32.15-70.37
		c-18.12-16.03-28.09-36.75-28.09-58.34V712.8c5.22-3,8.78-8.56,8.78-15v-30.84c0-9.57-7.78-17.37-17.36-17.37h-62.36
		c-0.57,0-1.14,0.03-1.7,0.09s-1.13,0.14-1.68,0.25c-0.56,0.11-1.11,0.25-1.65,0.42s-1.08,0.36-1.6,0.58
		c-0.53,0.22-1.04,0.46-1.54,0.73c-0.5,0.27-0.99,0.56-1.46,0.88c-0.47,0.32-0.93,0.65-1.37,1.02c-0.44,0.36-0.86,0.74-1.26,1.14
		c-0.4,0.4-0.78,0.82-1.14,1.26c-0.36,0.44-0.7,0.9-1.02,1.37c-0.32,0.47-0.61,0.96-0.88,1.46c-0.27,0.5-0.51,1.01-0.73,1.54
		c-0.22,0.52-0.41,1.06-0.58,1.6c-0.17,0.54-0.3,1.09-0.42,1.65c-0.11,0.56-0.2,1.12-0.25,1.68c-0.06,0.57-0.09,1.13-0.09,1.7v30.84
		c0,7.18,4.39,13.36,10.62,16v57.4c0,22.72-10.31,44.49-28.31,59.73c-21.45,18.2-33.77,44.37-33.77,71.81v94.07h-29.52
		c-1.23,0-2.41,0.24-3.55,0.71c-1.14,0.47-2.14,1.14-3.01,2.01c-0.87,0.87-1.54,1.87-2.01,3.01c-0.47,1.14-0.71,2.32-0.71,3.55
		v86.32c0,0.61,0.06,1.21,0.18,1.81c0.12,0.6,0.29,1.18,0.53,1.74c0.23,0.56,0.52,1.1,0.86,1.6c0.34,0.51,0.72,0.97,1.15,1.4
		c0.43,0.43,0.9,0.81,1.4,1.15c0.51,0.34,1.04,0.62,1.6,0.86c0.56,0.23,1.14,0.41,1.74,0.53c0.6,0.12,1.2,0.18,1.81,0.18h20.25
		v40.68h-20.25c-1.23,0-2.41,0.24-3.55,0.71c-1.14,0.47-2.14,1.14-3.01,2.01c-0.87,0.87-1.54,1.87-2.01,3.01
		c-0.47,1.14-0.71,2.32-0.71,3.55v86.32c0,0.61,0.06,1.21,0.18,1.81c0.12,0.6,0.29,1.18,0.53,1.74c0.23,0.56,0.52,1.1,0.86,1.6
		c0.34,0.51,0.72,0.97,1.15,1.4c0.43,0.43,0.9,0.81,1.4,1.15c0.51,0.34,1.04,0.62,1.6,0.86c0.56,0.23,1.14,0.41,1.74,0.53
		s1.2,0.18,1.81,0.18h20.25v40.68h-20.25c-1.23,0-2.41,0.24-3.55,0.71c-1.14,0.47-2.14,1.14-3.01,2.01
		c-0.87,0.87-1.54,1.87-2.01,3.01c-0.47,1.14-0.71,2.32-0.71,3.55v86.33c0,0.61,0.06,1.21,0.18,1.81c0.12,0.6,0.29,1.18,0.53,1.74
		c0.23,0.56,0.52,1.1,0.86,1.6c0.34,0.51,0.72,0.97,1.15,1.4c0.43,0.43,0.9,0.81,1.4,1.15s1.04,0.62,1.6,0.86
		c0.56,0.23,1.14,0.41,1.74,0.53c0.6,0.12,1.2,0.18,1.81,0.18h724.53c0.61,0,1.21-0.06,1.81-0.18c0.6-0.12,1.18-0.29,1.74-0.53
		c0.56-0.23,1.1-0.52,1.6-0.86c0.51-0.34,0.97-0.72,1.4-1.15c0.43-0.43,0.81-0.9,1.15-1.4c0.34-0.51,0.62-1.04,0.86-1.6
		c0.23-0.56,0.41-1.14,0.53-1.74c0.12-0.6,0.18-1.2,0.18-1.81v-86.33c0-0.61-0.06-1.21-0.18-1.81c-0.12-0.6-0.29-1.18-0.53-1.74
		c-0.23-0.56-0.52-1.1-0.86-1.6c-0.34-0.51-0.72-0.97-1.15-1.4c-0.43-0.43-0.9-0.81-1.4-1.15c-0.51-0.34-1.04-0.62-1.6-0.86
		s-1.14-0.41-1.74-0.53c-0.6-0.12-1.2-0.18-1.81-0.18h-20.66v-40.68h20.66c0.61,0,1.21-0.06,1.81-0.18s1.18-0.29,1.74-0.53
		c0.56-0.23,1.1-0.52,1.6-0.86c0.51-0.34,0.97-0.72,1.4-1.15c0.43-0.43,0.81-0.9,1.15-1.4c0.34-0.51,0.62-1.04,0.86-1.6
		c0.23-0.56,0.41-1.14,0.53-1.74c0.12-0.6,0.18-1.2,0.18-1.81v-86.32c0-0.61-0.06-1.21-0.18-1.81c-0.12-0.6-0.29-1.18-0.53-1.74
		c-0.23-0.56-0.52-1.1-0.86-1.6c-0.34-0.51-0.72-0.97-1.15-1.4c-0.43-0.43-0.9-0.81-1.4-1.15c-0.51-0.34-1.04-0.62-1.6-0.86
		c-0.56-0.23-1.14-0.41-1.74-0.53c-0.6-0.12-1.2-0.18-1.81-0.18h-20.66v-40.68h20.66c0.61,0,1.21-0.06,1.81-0.18
		c0.6-0.12,1.18-0.29,1.74-0.53c0.56-0.23,1.1-0.52,1.6-0.86c0.51-0.34,0.97-0.72,1.4-1.15c0.43-0.43,0.81-0.9,1.15-1.4
		c0.34-0.51,0.62-1.04,0.86-1.6c0.23-0.56,0.41-1.14,0.53-1.74c0.12-0.6,0.18-1.2,0.18-1.81v-86.32c0.01-1.23-0.22-2.41-0.69-3.55
		c-0.47-1.14-1.13-2.14-2-3.01c-0.87-0.87-1.87-1.54-3-2.01C1901.96,997.04,1900.78,996.81,1899.55,996.81L1899.55,996.81z"/>
	<path class="st0" d="M2662.46,2259.46c19.47,6.83,41.4,10.25,66.03,10.25c19.94,0,37.42-3.18,52.36-9.61
		c14.94-6.44,26.38-15.65,34.48-27.65c8.03-12,12.08-26.14,12.08-42.43c0-19.78-4.53-35.12-13.67-45.93
		c-9.14-10.81-22.57-18.28-40.28-22.57l-34.33-8.18c-3.58-0.87-6.12-1.91-7.79-3.34c-1.67-1.35-2.46-3.18-2.46-5.64
		c0-9.46,11.6-14.14,34.72-14.14c17.8,0,34.72,2.15,50.53,6.44v-64.68c-17.56-4.29-35.99-6.44-55.3-6.44
		c-22.57,0-41.64,3.18-57.29,9.61c-15.65,6.44-27.41,15.49-35.36,27.25c-7.87,11.68-11.84,25.51-11.84,41.56
		c0,19.71,4.69,35.28,14.14,46.64c9.38,11.44,22.8,19.15,40.28,23.2l34.25,8.1c3.58,0.87,6.12,2.07,7.63,3.5
		c1.51,1.51,2.22,3.66,2.22,6.36c0,4.29-1.91,7.55-5.8,9.85c-3.81,2.3-10.65,3.42-20.34,3.42c-23.12,0-44.58-3.42-64.28-10.25
		V2259.46z M2492.58,2082.27c2.78-2.38,6.52-3.58,11.36-3.58c4.77,0,8.42,1.19,11.04,3.58c2.62,2.46,4.61,6.91,5.88,13.27
		c1.27,6.44,1.91,15.65,1.91,27.65h-38.54c0.16-12,0.87-21.21,2.3-27.65C2487.89,2089.18,2489.88,2084.73,2492.58,2082.27z
		 M2599.53,2172.05v-23.6c0-39.65-8.03-70.08-24-91.22c-16.05-21.14-39.73-31.7-71.11-31.7c-22.33,0-41.16,4.77-56.65,14.22
		c-15.49,9.53-27.25,23.28-35.2,41.24c-7.87,18.04-11.84,39.65-11.84,64.92c0,29.24,4.13,52.92,12.55,71.03
		c8.34,18.04,21.45,31.39,39.49,39.97c17.96,8.5,41.64,12.79,70.88,12.79c10.89,0,21.29-0.56,31.31-1.83
		c10.01-1.19,20.98-3.18,32.97-5.88v-65.08c-20.42,4.85-38.3,7.23-53.55,7.23c-12.24,0-21.85-0.95-28.84-2.94
		c-6.91-2.07-12-5.32-15.18-9.85c-3.18-4.61-5.16-11.04-5.88-19.31H2599.53z M2274.31,2029.35l-31.7,152.95l-31.7-152.95h-84.78
		l61.26,235.67h107.11l61.26-235.67H2274.31z M2129.54,1947.99h-80.57l-57.84,110.13l-57.37-110.13h-87.88l100.67,186.8v130.23
		h83.99v-130.87L2129.54,1947.99z M1668.53,2029.35v235.67h82.72v-147.79c3.81-4.61,9.61-8.26,17.32-11.12
		c7.71-2.86,15.89-4.29,24.63-4.29c9.46,0,17.16,0.72,23.12,2.15v-76.76c-6.28-1.11-12.16-1.67-17.56-1.67
		c-12.71,0-23.52,2.86-32.58,8.58c-8.98,5.72-15.65,15.1-20.1,28.29h-3.42l-6.44-33.05H1668.53z M1495.63,2082.27
		c2.7-2.38,6.52-3.58,11.36-3.58c4.77,0,8.42,1.19,11.04,3.58c2.62,2.46,4.61,6.91,5.88,13.27c1.27,6.44,1.91,15.65,1.91,27.65
		h-38.54c0.16-12,0.87-21.21,2.3-27.65C1490.94,2089.18,1492.93,2084.73,1495.63,2082.27z M1602.58,2172.05v-23.6
		c0-39.65-8.03-70.08-24-91.22c-16.05-21.14-39.73-31.7-71.11-31.7c-22.33,0-41.16,4.77-56.65,14.22
		c-15.49,9.53-27.25,23.28-35.2,41.24c-7.87,18.04-11.84,39.65-11.84,64.92c0,29.24,4.13,52.92,12.47,71.03
		c8.42,18.04,21.53,31.39,39.57,39.97c17.96,8.5,41.64,12.79,70.88,12.79c10.89,0,21.29-0.56,31.31-1.83
		c10.01-1.19,20.98-3.18,32.97-5.88v-65.08c-20.42,4.85-38.3,7.23-53.55,7.23c-12.32,0-21.85-0.95-28.84-2.94
		c-6.91-2.07-12-5.32-15.18-9.85c-3.18-4.61-5.16-11.04-5.88-19.31H1602.58z M1277.36,2029.35l-31.7,152.95l-31.7-152.95h-84.78
		l61.26,235.67h107.11l61.26-235.67H1277.36z M992.35,1994.23c8.26,7.71,20.82,11.6,37.82,11.6c17,0,29.64-3.89,37.82-11.6
		c8.18-7.71,12.32-18.67,12.32-32.97s-4.13-25.27-12.32-32.97c-8.18-7.71-20.82-11.6-37.82-11.6c-17,0-29.56,3.89-37.82,11.6
		c-8.18,7.71-12.32,18.67-12.32,32.97S984.16,1986.52,992.35,1994.23z M988.61,2265.02h83.11v-235.67h-83.11V2265.02z
		 M829.7,2265.02h82.64v-346.2H829.7V2265.02z M656.8,2082.27c2.7-2.38,6.52-3.58,11.36-3.58c4.69,0,8.34,1.19,11.04,3.58
		c2.62,2.46,4.61,6.91,5.88,13.27c1.27,6.44,1.91,15.65,1.91,27.65h-38.54c0.16-12,0.87-21.21,2.22-27.65
		C652.03,2089.18,654.1,2084.73,656.8,2082.27z M763.67,2172.05v-23.6c0-39.65-7.95-70.08-24-91.22
		c-15.97-21.14-39.65-31.7-71.11-31.7c-22.25,0-41.16,4.77-56.65,14.22c-15.49,9.53-27.17,23.28-35.12,41.24
		c-7.95,18.04-11.92,39.65-11.92,64.92c0,29.24,4.21,52.92,12.55,71.03c8.34,18.04,21.53,31.39,39.49,39.97
		c18.04,8.5,41.64,12.79,70.96,12.79c10.81,0,21.29-0.56,31.23-1.83c10.01-1.19,21.06-3.18,33.05-5.88v-65.08
		c-20.42,4.85-38.3,7.23-53.55,7.23c-12.32,0-21.93-0.95-28.84-2.94c-6.91-2.07-12-5.32-15.18-9.85
		c-3.26-4.61-5.24-11.04-5.96-19.31H763.67z M386.88,2190.89c-9.14,5.72-20.66,8.58-34.48,8.58c-8.03,0-15.18-0.16-21.45-0.4
		v-183.78c2.46-0.64,5.64-1.11,9.53-1.51c3.97-0.48,7.47-0.64,10.65-0.64c13.67,0,25.27,2.78,34.72,8.5
		c9.38,5.72,16.69,15.41,21.85,29.16c5.09,13.75,7.71,32.26,7.71,55.7s-2.46,41.87-7.39,55.46
		C403.09,2175.55,396.02,2185.17,386.88,2190.89z M247.04,2264.62c26.94,3.1,54.35,4.69,82.24,4.69c38.93,0,71.19-5.72,96.62-17.24
		c25.43-11.52,44.42-29.24,57.05-53.24c12.63-24,18.99-54.75,18.99-92.33c0-55.7-13.27-96.78-39.89-123.16
		c-26.54-26.46-66.98-39.65-121.25-39.65c-30.11,0-61.34,3.58-93.76,10.73V2264.62z"/>
	<rect x="247.04" y="2413.8" class="st2" width="413.53" height="14.28"/>
	<path class="st2" d="M2340.07,2465.35c-2.46,1.35-4.93,1.99-7.47,1.99c-3.34,0-6.2-0.79-8.5-2.38c-2.3-1.51-4.21-4.37-5.56-8.5
		s-1.99-9.85-1.99-17.08c0-7.15,0.79-12.79,2.38-17.08s3.89-7.39,6.99-9.22c3.02-1.91,6.91-2.86,11.68-2.86
		c1.19,0,2.62,0.08,4.13,0.24c1.59,0.16,2.86,0.32,3.89,0.48v49.03C2344.37,2462.25,2342.46,2464.08,2340.07,2465.35z
		 M2315.28,2475.44c3.97,2.62,8.42,3.89,13.43,3.89c3.89,0,7.31-0.87,10.25-2.54c2.94-1.75,5.24-4.05,6.99-6.91h0.79l0.95,8.03
		h11.84v-115.37h-13.91v36.95c-2.22-0.24-4.61-0.4-7.07-0.4c-12.08,0-21.22,3.42-27.25,10.25c-6.04,6.91-9.06,17.32-9.06,31.31
		c0,9.14,1.19,16.61,3.58,22.33C2308.21,2468.76,2311.39,2472.9,2315.28,2475.44z M2260.62,2400.19v77.71h13.83v-55.22
		c1.83-3.18,4.29-5.64,7.63-7.47c3.26-1.91,6.67-2.78,10.33-2.78c2.15,0,4.05,0.16,5.48,0.4v-13.03c-1.51-0.32-3.1-0.48-4.61-0.48
		c-4.13,0-7.79,0.95-11.12,2.86c-3.34,1.91-6.04,4.85-8.1,8.66h-0.79l-1.11-10.65H2260.62z M2210.48,2414.5
		c2.46-3.73,6.04-5.64,10.57-5.64c2.94,0,5.4,0.72,7.39,2.22c1.99,1.51,3.5,4.13,4.61,7.87s1.67,8.9,1.83,15.41h-28.37
		C2206.67,2424.9,2207.94,2418.23,2210.48,2414.5z M2248.14,2443.66v-4.45c0-13.83-2.3-24-6.91-30.43
		c-4.61-6.52-11.28-9.77-20.1-9.77c-9.06,0-16.13,3.26-21.21,9.85c-5.01,6.52-7.55,16.53-7.55,30.03c0,9.77,1.19,17.56,3.66,23.52
		c2.46,5.88,6.12,10.17,11.04,12.87c4.93,2.7,11.36,4.05,19.15,4.05c5.96,0,12-0.95,18.28-2.78v-11.52
		c-6.28,1.83-11.84,2.7-16.69,2.7c-5.01,0-8.98-0.72-12-2.22c-3.1-1.51-5.32-3.97-6.83-7.47c-1.51-3.5-2.3-8.34-2.46-14.38H2248.14z
		 M2173.69,2400.19l-18.83,64.2l-18.91-64.2h-14.46l24,77.71h18.28l24-77.71H2173.69z M2080.09,2414.5
		c2.46-3.73,6.04-5.64,10.57-5.64c2.94,0,5.4,0.72,7.39,2.22c1.99,1.51,3.5,4.13,4.61,7.87s1.67,8.9,1.83,15.41h-28.37
		C2076.28,2424.9,2077.55,2418.23,2080.09,2414.5z M2117.75,2443.66v-4.45c0-13.83-2.3-24-6.91-30.43
		c-4.61-6.52-11.28-9.77-20.1-9.77c-9.06,0-16.13,3.26-21.22,9.85c-5.01,6.52-7.55,16.53-7.55,30.03c0,9.77,1.19,17.56,3.66,23.52
		c2.46,5.88,6.2,10.17,11.12,12.87s11.28,4.05,19.07,4.05c5.96,0,12-0.95,18.28-2.78v-11.52c-6.28,1.83-11.84,2.7-16.69,2.7
		c-5.01,0-8.98-0.72-12-2.22c-3.1-1.51-5.32-3.97-6.83-7.47c-1.51-3.5-2.3-8.34-2.46-14.38H2117.75z M2034.8,2477.9h13.83v-115.37
		h-13.83V2477.9z M1984.58,2414.5c2.54-3.73,6.04-5.64,10.65-5.64c2.94,0,5.4,0.72,7.39,2.22c1.99,1.51,3.5,4.13,4.61,7.87
		c1.03,3.73,1.67,8.9,1.75,15.41h-28.37C1980.77,2424.9,1982.12,2418.23,1984.58,2414.5z M2022.25,2443.66v-4.45
		c0-13.83-2.3-24-6.83-30.43c-4.61-6.52-11.36-9.77-20.1-9.77c-9.14,0-16.21,3.26-21.22,9.85c-5.09,6.52-7.63,16.53-7.63,30.03
		c0,9.77,1.27,17.56,3.73,23.52c2.46,5.88,6.12,10.17,11.04,12.87c4.93,2.7,11.28,4.05,19.07,4.05c5.96,0,12.08-0.95,18.28-2.78
		v-11.52c-6.28,1.83-11.84,2.7-16.69,2.7c-4.93,0-8.9-0.72-12-2.22c-3.02-1.51-5.32-3.97-6.83-7.47c-1.43-3.5-2.3-8.34-2.46-14.38
		H2022.25z M1933.81,2465.27c-2.3,1.27-4.69,1.83-7.31,1.83c-3.5,0-6.36-0.79-8.74-2.3c-2.38-1.59-4.29-4.45-5.56-8.5
		c-1.35-4.05-2.07-9.77-2.07-17c0-10.41,1.75-17.88,5.24-22.41s8.66-6.75,15.65-6.75c2.38,0,5.16,0.32,8.26,0.95v48.95
		C1937.94,2462.25,1936.11,2464,1933.81,2465.27z M1910.21,2510c3.58,0.48,6.91,0.72,10.01,0.72c11.12,0,19.39-2.7,24.79-8.18
		c5.4-5.56,8.1-14.38,8.1-26.7v-73.42c-2.86-1.03-6.2-1.91-10.01-2.46c-3.89-0.64-7.55-0.95-11.12-0.95
		c-12,0.08-21.06,3.5-27.09,10.33c-5.96,6.91-8.98,17.24-8.98,31.23c0,9.06,1.11,16.53,3.5,22.17c2.3,5.72,5.4,9.85,9.22,12.4
		c3.81,2.54,8.1,3.81,12.79,3.81c3.81,0,7.23-0.79,10.17-2.38c2.94-1.59,5.24-3.73,6.99-6.36h0.71v7.87c0,5.24-0.71,9.38-2.22,12.47
		c-1.43,3.1-3.66,5.32-6.59,6.75c-2.94,1.35-6.67,2.07-11.2,2.07c-6.2,0-12.32-1.03-18.51-3.02v11.52
		C1903.54,2508.81,1906.71,2509.53,1910.21,2510z M1811.21,2476.31c5.72,1.99,11.84,3.02,18.51,3.02c5.72,0,10.65-0.95,14.78-2.78
		c4.21-1.83,7.39-4.53,9.61-8.1c2.15-3.5,3.26-7.63,3.26-12.47c0-5.8-1.35-10.41-4.13-13.91c-2.78-3.5-7.23-6.04-13.59-7.71
		l-8.5-2.15c-3.02-0.87-5.32-2.15-6.75-3.73c-1.51-1.67-2.22-3.89-2.22-6.67c0-3.42,1.35-6.12,4.05-8.26
		c2.62-2.07,6.75-3.1,12.24-3.1c2.7,0,5.24,0.16,7.63,0.4c2.38,0.32,4.85,0.79,7.39,1.43v-11.52c-5.16-1.19-10.33-1.75-15.65-1.75
		c-6.04,0-11.2,0.95-15.49,2.86c-4.29,1.99-7.55,4.61-9.69,8.03c-2.22,3.5-3.34,7.47-3.34,12c0,5.64,1.43,10.25,4.29,13.75
		c2.78,3.5,7.23,6.04,13.35,7.63l8.5,2.22c3.1,0.87,5.4,2.15,6.91,3.81c1.43,1.67,2.22,4.05,2.22,7.15c0,3.66-1.27,6.52-3.89,8.5
		c-2.54,1.99-6.28,2.94-11.28,2.94c-5.96,0-12.08-1.03-18.2-3.02V2476.31z M1783.08,2382.79c1.59,1.43,3.89,2.22,6.91,2.22
		c3.02,0,5.32-0.79,6.91-2.22c1.59-1.51,2.38-3.66,2.38-6.28c0-2.7-0.79-4.85-2.38-6.36c-1.59-1.51-3.89-2.3-6.91-2.3
		c-3.02,0-5.32,0.79-6.91,2.3c-1.59,1.51-2.38,3.66-2.38,6.36C1780.7,2379.14,1781.49,2381.28,1783.08,2382.79z M1783.08,2477.9
		h13.91v-77.71h-13.91V2477.9z M1717.69,2473.29c3.81,3.97,8.9,5.96,15.34,5.96c3.81,0,7.39-0.79,10.81-2.38
		c3.34-1.67,6.36-4.05,8.98-7.31h0.79l0.95,8.34h11.76v-77.71h-13.91v57.69c-1.67,3.02-3.97,5.24-6.83,6.67
		c-2.86,1.43-5.64,2.15-8.34,2.15c-3.58,0-6.36-1.11-8.34-3.26c-1.99-2.07-3.02-5.64-3.02-10.57v-52.68h-13.83v53.47
		C1712.04,2462.73,1713.87,2469.24,1717.69,2473.29z M1641.41,2362.53v115.37h13.83v-57.45c1.75-3.02,4.13-5.24,6.99-6.67
		c2.86-1.43,5.72-2.15,8.58-2.15c3.73,0,6.59,1.03,8.58,3.18c1.99,2.15,3.02,5.64,3.02,10.65v52.44h13.83v-53.16
		c0-9.14-1.83-15.65-5.56-19.71c-3.73-4.05-8.66-6.04-14.94-6.04c-8.26,0-14.86,3.26-19.71,9.69h-0.79v-46.16H1641.41z
		 M1631.63,2466.22c-3.1,0.56-5.72,0.87-7.71,0.87c-3.02,0-5.4-0.48-7.31-1.35c-1.83-0.95-3.18-2.54-4.05-4.69
		c-0.87-2.22-1.27-5.16-1.27-8.9v-40.68h19.39v-11.28h-19.39v-27.97h-11.44l-2.46,27.97h-12.55v11.28h12.55v42.35
		c0,8.9,1.99,15.34,5.96,19.39s9.77,6.04,17.4,6.04c3.5,0,7.07-0.4,10.89-1.27V2466.22z M1491.79,2400.19v77.71h13.91v-57.45
		c1.75-3.02,4.05-5.24,6.91-6.67c2.86-1.51,5.72-2.22,8.58-2.22c3.73,0,6.59,1.03,8.58,3.18c1.99,2.07,3.02,5.64,3.02,10.65v52.52
		h13.83v-53.47c0-8.98-1.83-15.41-5.64-19.47c-3.81-3.97-8.98-5.96-15.49-5.96c-4.05,0-7.87,0.79-11.28,2.46
		c-3.42,1.67-6.36,4.13-8.9,7.23h-0.79l-1.03-8.5H1491.79z M1441.65,2414.5c2.46-3.73,6.04-5.64,10.57-5.64
		c2.94,0,5.4,0.72,7.39,2.22c1.99,1.51,3.58,4.13,4.61,7.87c1.11,3.73,1.75,8.9,1.83,15.41h-28.37
		C1437.84,2424.9,1439.11,2418.23,1441.65,2414.5z M1479.31,2443.66v-4.45c0-13.83-2.3-24-6.91-30.43
		c-4.61-6.52-11.28-9.77-20.1-9.77c-9.06,0-16.13,3.26-21.22,9.85c-5.01,6.52-7.55,16.53-7.55,30.03c0,9.77,1.19,17.56,3.65,23.52
		c2.46,5.88,6.2,10.17,11.12,12.87c4.93,2.7,11.28,4.05,19.07,4.05c5.96,0,12.08-0.95,18.28-2.78v-11.52
		c-6.28,1.83-11.84,2.7-16.69,2.7c-5.01,0-8.98-0.72-12-2.22c-3.1-1.51-5.32-3.97-6.83-7.47c-1.51-3.5-2.3-8.34-2.46-14.38H1479.31z
		 M1406.93,2477.9h15.26l-26.46-39.97l24.08-37.74h-14.86l-20.82,32.26h-8.66v-69.92h-13.83v115.37h13.83v-34.17h8.82
		L1406.93,2477.9z M1290.44,2400.19v77.71h13.83v-57.45c1.75-3.02,4.13-5.24,6.99-6.67c2.86-1.51,5.72-2.22,8.58-2.22
		c3.73,0,6.59,1.03,8.58,3.18c1.99,2.07,3.02,5.64,3.02,10.65v52.52h13.83v-53.47c0-8.98-1.91-15.41-5.64-19.47
		c-3.81-3.97-8.98-5.96-15.49-5.96c-4.05,0-7.87,0.79-11.28,2.46c-3.42,1.67-6.36,4.13-8.9,7.23h-0.79l-1.11-8.5H1290.44z
		 M1254.13,2466.54c-2.46,1.27-5.01,1.83-7.63,1.83c-3.66,0-6.59-0.95-8.58-3.02c-1.99-1.99-3.02-5.09-3.02-9.14
		c0-3.97,1.11-7.07,3.42-9.22c2.3-2.23,5.8-3.5,10.57-3.97l11.68-1.19v18.43C1258.74,2463.2,1256.6,2465.27,1254.13,2466.54z
		 M1262,2401.7c-4.05-1.83-9.22-2.7-15.57-2.7c-3.42,0-6.99,0.24-10.65,0.79c-3.65,0.48-6.99,1.27-9.85,2.22v11.44
		c3.02-0.95,6.12-1.67,9.3-2.15c3.18-0.56,6.12-0.79,8.82-0.79c3.97,0,7.07,0.48,9.46,1.43c2.38,0.95,4.21,2.62,5.32,4.93
		c1.19,2.3,1.75,5.48,1.75,9.61v6.28l-12.95,1.35c-9.14,0.79-15.81,3.1-20.1,7.07c-4.29,3.89-6.44,9.46-6.44,16.61
		c0,4.37,0.87,8.26,2.7,11.44c1.75,3.26,4.21,5.72,7.39,7.39c3.18,1.75,6.91,2.54,11.04,2.54c4.05,0,7.71-0.79,10.89-2.38
		c3.18-1.59,5.8-4.05,7.79-7.31h0.79l1.03,8.42h11.44v-50.77c0-6.91-1.03-12.47-3.02-16.61
		C1269.07,2406.39,1266.05,2403.45,1262,2401.7z M1180.87,2400.19v77.71h13.91v-55.22c1.75-3.18,4.29-5.64,7.55-7.47
		c3.26-1.91,6.75-2.78,10.33-2.78c2.22,0,4.05,0.16,5.56,0.4v-13.03c-1.59-0.32-3.1-0.48-4.69-0.48c-4.05,0-7.79,0.95-11.12,2.86
		c-3.26,1.91-5.96,4.85-8.1,8.66h-0.79l-1.11-10.65H1180.87z M1144.56,2465.35c-2.38,1.35-4.85,1.99-7.39,1.99
		c-3.34,0-6.2-0.79-8.5-2.38c-2.38-1.51-4.21-4.37-5.56-8.5c-1.35-4.13-2.07-9.85-2.07-17.08c0-7.15,0.79-12.79,2.38-17.08
		c1.67-4.29,3.97-7.39,7.07-9.22c3.02-1.91,6.91-2.86,11.6-2.86c1.27,0,2.7,0.08,4.21,0.24c1.59,0.16,2.86,0.32,3.89,0.48v49.03
		C1148.85,2462.25,1147.02,2464.08,1144.56,2465.35z M1119.85,2475.44c3.97,2.62,8.42,3.89,13.43,3.89c3.89,0,7.23-0.87,10.25-2.54
		c2.94-1.75,5.24-4.05,6.99-6.91h0.72l1.03,8.03h11.76v-115.37h-13.83v36.95c-2.22-0.24-4.61-0.4-7.07-0.4
		c-12.16,0-21.22,3.42-27.25,10.25c-6.04,6.91-9.06,17.32-9.06,31.31c0,9.14,1.19,16.61,3.58,22.33
		C1112.78,2468.76,1115.88,2472.9,1119.85,2475.44z M1056.6,2400.19l-15.1,61.5l-15.97-61.5h-15.65l-16.29,61.82l-14.94-61.82
		h-13.11l19.47,77.71h15.73l16.77-63.09l16.61,63.09h15.65l19.47-77.71H1056.6z M906.27,2473.29c3.73,3.97,8.9,5.96,15.34,5.96
		c3.73,0,7.39-0.79,10.73-2.38c3.42-1.67,6.36-4.05,8.98-7.31h0.79l1.03,8.34h11.68v-77.71h-13.83v57.69
		c-1.75,3.02-3.97,5.24-6.83,6.67c-2.86,1.43-5.64,2.15-8.34,2.15c-3.58,0-6.36-1.11-8.42-3.26c-1.99-2.07-2.94-5.64-2.94-10.57
		v-52.68h-13.91v53.47C900.55,2462.73,902.46,2469.24,906.27,2473.29z M840.16,2477.9h13.83v-115.37h-13.83V2477.9z M774.05,2433.17
		l14.86-50.77l14.86,50.77H774.05z M816.8,2477.9h14.06l-31.7-105.68h-20.34L747.2,2477.9h13.83l9.53-32.5h36.79L816.8,2477.9z"/>
	<rect x="2421.87" y="2413.8" class="st2" width="405.59" height="14.28"/>
</g>
</svg>
