<?xml version="1.0" encoding="UTF-8" standalone="no" ?>
<!DOCTYPE svg PUBLIC "-//W3C//DTD SVG 1.1//EN" "http://www.w3.org/Graphics/SVG/1.1/DTD/svg11.dtd">
<svg xmlns="http://www.w3.org/2000/svg" xmlns:xlink="http://www.w3.org/1999/xlink" version="1.1" width="526.1762866210936" height="207.17152" xml:space="preserve">
<desc>Created with Fabric.js 1.6.0-rc.1</desc>
<defs></defs>
  <g transform="translate(344.93 109.93) scale(1.72 1.68)">
   <text font-family="Ikaros" font-size="40" font-weight="normal" style="stroke: none; stroke-width: 1; stroke-dasharray: none; stroke-linecap: butt; stroke-linejoin: miter; stroke-miterlimit: 10; fill: #00203f; fill-rule: nonzero; opacity: 1;" ><tspan x="-100.06" y="-17.23" style="stroke: none; stroke-width: 0; stroke-dasharray: none; stroke-linecap: butt; stroke-linejoin: miter; stroke-miterlimit: 4; fill: #00203f; fill-rule: ; opacity: 1;">L</tspan><tspan x="-80.86" y="-17.23" style="stroke: none; stroke-width: 0; stroke-dasharray: none; stroke-linecap: butt; stroke-linejoin: miter; stroke-miterlimit: 4; fill: #00203f; fill-rule: ; opacity: 1;">e</tspan><tspan x="-58.62" y="-17.23" style="stroke: none; stroke-width: 0; stroke-dasharray: none; stroke-linecap: butt; stroke-linejoin: miter; stroke-miterlimit: 4; fill: #00203f; fill-rule: ; opacity: 1;">j</tspan><tspan x="-45.58" y="-17.23" style="stroke: none; stroke-width: 0; stroke-dasharray: none; stroke-linecap: butt; stroke-linejoin: miter; stroke-miterlimit: 4; fill: #00203f; fill-rule: ; opacity: 1;">a</tspan><tspan x="-23.02" y="-17.23" style="stroke: none; stroke-width: 0; stroke-dasharray: none; stroke-linecap: butt; stroke-linejoin: miter; stroke-miterlimit: 4; fill: #00203f; fill-rule: ; opacity: 1;">e</tspan><tspan x="-0.78" y="-17.23" style="stroke: none; stroke-width: 0; stroke-dasharray: none; stroke-linecap: butt; stroke-linejoin: miter; stroke-miterlimit: 4; fill: #00203f; fill-rule: ; opacity: 1;">g</tspan><tspan x="21.46" y="-17.23" style="stroke: none; stroke-width: 0; stroke-dasharray: none; stroke-linecap: butt; stroke-linejoin: miter; stroke-miterlimit: 4; fill: #00203f; fill-rule: ; opacity: 1;">h</tspan><tspan x="42.94" y="-17.23" style="stroke: none; stroke-width: 0; stroke-dasharray: none; stroke-linecap: butt; stroke-linejoin: miter; stroke-miterlimit: 4; fill: #00203f; fill-rule: ; opacity: 1;">e</tspan><tspan x="65.18" y="-17.23" style="stroke: none; stroke-width: 0; stroke-dasharray: none; stroke-linecap: butt; stroke-linejoin: miter; stroke-miterlimit: 4; fill: #00203f; fill-rule: ; opacity: 1;">r</tspan><tspan x="77.82" y="-17.23" style="stroke: none; stroke-width: 0; stroke-dasharray: none; stroke-linecap: butt; stroke-linejoin: miter; stroke-miterlimit: 4; fill: #00203f; fill-rule: ; opacity: 1;">e</tspan><tspan x="-100.06" y="35.2" style="stroke: none; stroke-width: 0; stroke-dasharray: none; stroke-linecap: butt; stroke-linejoin: miter; stroke-miterlimit: 4; fill: #00203f; fill-rule: ; opacity: 1;">L</tspan><tspan x="-80.86" y="35.2" style="stroke: none; stroke-width: 0; stroke-dasharray: none; stroke-linecap: butt; stroke-linejoin: miter; stroke-miterlimit: 4; fill: #00203f; fill-rule: ; opacity: 1;">e</tspan><tspan x="-58.62" y="35.2" style="stroke: none; stroke-width: 0; stroke-dasharray: none; stroke-linecap: butt; stroke-linejoin: miter; stroke-miterlimit: 4; fill: #00203f; fill-rule: ; opacity: 1;">v</tspan><tspan x="-38.3" y="35.2" style="stroke: none; stroke-width: 0; stroke-dasharray: none; stroke-linecap: butt; stroke-linejoin: miter; stroke-miterlimit: 4; fill: #00203f; fill-rule: ; opacity: 1;">e</tspan><tspan x="-16.06" y="35.2" style="stroke: none; stroke-width: 0; stroke-dasharray: none; stroke-linecap: butt; stroke-linejoin: miter; stroke-miterlimit: 4; fill: #00203f; fill-rule: ; opacity: 1;">r</tspan><tspan x="-3.42" y="35.2" style="stroke: none; stroke-width: 0; stroke-dasharray: none; stroke-linecap: butt; stroke-linejoin: miter; stroke-miterlimit: 4; fill: #00203f; fill-rule: ; opacity: 1;">t</tspan></text>
 </g>
<g style="stroke: none; stroke-width: 1; stroke-dasharray: none; stroke-linecap: butt; stroke-linejoin: miter; stroke-miterlimit: 10; fill: none; fill-rule: nonzero; opacity: 1;" transform="translate(10 10) scale(0.32 0.32)" >
  <polygon points="384.06,263.35 100.14,263.35 116.61,431.35 367.59,431.35 " style="stroke: none; stroke-width: 1; stroke-dasharray: none; stroke-linecap: butt; stroke-linejoin: miter; stroke-miterlimit: 10; fill: #adefd3; fill-rule: nonzero; opacity: 1;" transform="  matrix(1 0 0 1 0 0) "/>
  <path d="M 376.252 61.424 l 109 -46.72 L 478.956 0 l -115 49.28 l -9.12 22.072 H 153.628 c -3.992 -35.944 -34.528 -64 -71.528 -64 c -39.704 0 -72 32.296 -72 72 c 0 39.368 31.768 71.416 71.016 71.952 l 33.728 344.048 h 254.512 l 41.56 -424 H 372.14 L 376.252 61.424 z M 105.828 239.352 h 0.272 c 0 -22.056 17.944 -40 40 -40 s 40 17.944 40 40 h 0.008 v 0.336 l 7.656 183.664 h -69.896 L 105.828 239.352 z M 209.772 423.352 l -7.672 -184 c 0 -22.056 17.944 -40 40 -40 c 22.04 0 39.968 17.92 39.992 39.96 l -0.376 9.072 l -71.008 171.92 l 7.392 3.048 H 209.772 z M 279.772 294.984 l -5.344 128.368 h -47.672 L 279.772 294.984 z M 297.588 251.864 l 19.064 -46.168 c 6.216 -3.968 13.544 -6.344 21.448 -6.344 c 22.056 0 40 17.944 40 40 h 0.272 l -18.04 184 h -69.896 L 297.588 251.864 z M 290.1 210.656 c -9.8 -16.32 -27.616 -27.304 -48 -27.304 s -38.2 10.984 -48 27.304 c -9.8 -16.32 -27.616 -27.304 -48 -27.304 c -17.672 0 -33.432 8.248 -43.696 21.072 l -5.36 -54.656 c 30.008 -6.36 53.144 -31.448 56.584 -62.416 h 194.6 l -44.592 107.952 C 298.236 199.544 293.652 204.744 290.1 210.656 z M 90.924 87.352 h 46.544 c -3.264 22.648 -20.096 40.928 -42 46.32 L 90.924 87.352 z M 26.1 79.352 c 0 -30.872 25.128 -56 56 -56 c 28.152 0 51.456 20.912 55.36 48 H 86.1 l -21.6 -28.8 l -12.8 9.6 l 19.2 25.6 l -25.6 19.2 l 9.6 12.8 L 75.532 94.28 l 4.016 40.944 C 49.86 133.872 26.1 109.36 26.1 79.352 z M 129.356 479.352 l -3.92 -40 h 233.328 l -3.92 40 H 129.356 z M 393.276 87.352 l -11.48 117.072 c -10.264 -12.824 -26.024 -21.072 -43.696 -21.072 c -4.432 0 -8.72 0.568 -12.856 1.544 l 40.296 -97.544 H 393.276 z" style="stroke: none; stroke-width: 1; stroke-dasharray: none; stroke-linecap: butt; stroke-linejoin: miter; stroke-miterlimit: 10; fill: #002036; fill-rule: nonzero; opacity: 1;" transform=" matrix(1 0 0 1 0 0) " stroke-linecap="round" />
</g>
</svg>