<svg id="Laag_1" data-name="Laag 1" xmlns="http://www.w3.org/2000/svg" xmlns:xlink="http://www.w3.org/1999/xlink" viewBox="0 0 283.46 283.46"><defs><style>.cls-1,.cls-3{fill:none;}.cls-2{clip-path:url(#clip-path);}.cls-3{stroke:#005fab;stroke-linecap:round;stroke-linejoin:round;stroke-width:0.71px;}</style><clipPath id="clip-path"><rect class="cls-1" width="283.46" height="283.46"/></clipPath></defs><g class="cls-2"><path class="cls-3" d="M111.71,29.48s-5.37,2.24-8.16,4.73-4.19,4.78-6,6.35-4.09,1-10.5.41-9.87,1.5-13.42,4.67-21,18.74-23.48,21-3,6.32-1.15,8.33L65.58,93.45c1.2,1.34,5.46,2.5,7.55.64l24.7-22c3-2.68,6.19-7.68,6-12.34S103.25,50.64,105,49s4.5-2.69,7-4.9,5.83-7.79,5.83-7.79"/><path class="cls-3" d="M117.49,36c1.39,1.56,2,2.12,3.08,1.12l3-2.68c.44-.39,1.3-1-.25-2.79l-6.43-7.2c-.65-.73-1.65-1.14-2.4-.47L111,27.06c-.53.48-.4,1.14.31,1.93Z"/><line class="cls-3" x1="100.23" y1="37.78" x2="108.33" y2="46.86"/><rect class="cls-3" x="67.43" y="56.38" width="19.89" height="19.89" transform="translate(75.35 -35.56) rotate(48.26)"/><rect class="cls-3" x="82.26" y="84.58" width="32.16" height="36.44" transform="translate(109.58 -39.02) rotate(48.26)"/><rect class="cls-3" x="100.21" y="102.67" width="8.89" height="8.89" transform="translate(114.91 -42.29) rotate(48.26)"/><rect class="cls-3" x="89.61" y="98.25" width="8.89" height="8.89" transform="translate(175.47 -10.29) rotate(78.26)"/><rect class="cls-3" x="95.25" y="88.05" width="8.89" height="8.89" transform="translate(133.86 -39.13) rotate(61.69)"/><line class="cls-3" x1="94.92" y1="84.3" x2="98.37" y2="88.17"/><line class="cls-3" x1="104.45" y1="94.99" x2="116.33" y2="108.3"/><line class="cls-3" x1="78.7" y1="98.78" x2="100.11" y2="122.77"/><line class="cls-3" x1="59.44" y1="75.05" x2="66.67" y2="83.15"/><path class="cls-3" d="M129.58,156.81l-7.79-1.06c-5.68-.77-9.29-6.09-10.78-8.54a11.08,11.08,0,0,0-6.82-4.84c-2.53-.5-20.12-.57-21.51-.6s-2.43.31-2.6,1.55c0,0-2.57,18.89-2.71,19.94s.38,1.5,1.61,1.93,18.82,5,22.19,5.49,6.3-2.57,7.76-3.87,7.08-5.15,11.81-4.5l7.94,1.08"/><path class="cls-3" d="M138.26,164.08c-.09.68-.43,1.22-1.83,1l-6.81-.92c-.71-.1-1-.43-.83-1.59s.57-4.16.66-4.84.16-1.59,1.08-1.46l7,.95c.74.1,1.61.38,1.43,1.67Z"/><line class="cls-3" x1="135.06" y1="156.92" x2="133.99" y2="164.78"/><ellipse class="cls-3" cx="96.02" cy="155.91" rx="6.03" ry="9.05" transform="translate(-71.42 230.02) rotate(-82.25)"/><line class="cls-3" x1="101.94" y1="142.16" x2="100.73" y2="151.1"/><line class="cls-3" x1="91.93" y1="141.87" x2="90.75" y2="150.61"/><line class="cls-3" x1="88.42" y1="167.71" x2="89.52" y2="159.61"/><line class="cls-3" x1="98.12" y1="170.26" x2="99.27" y2="161.81"/><path class="cls-3" d="M155.36,162.27c.54-1.4,1.47-3.32,4.92-2l51.59,19.82c.84.32.91,1,1.12,2s1.76,10.63,1.76,10.63a29.38,29.38,0,0,1,6.68,1.91c4.43,1.7,3.83,2.63,6,3.46s3.8.09,4.64.41l6.8,2.61-4.73,12.36-7.06-2.7c-.8-.31-2-2-3.68-2.67s-3.21,0-6.63-1.28a42.93,42.93,0,0,1-6.33-3.08l-9.6,7.68-52.14-19.95c-3.19-1.22-3.65-2.22-3.08-3.72Z"/><line class="cls-3" x1="221.9" y1="194.81" x2="217.24" y2="206.98"/><polyline class="cls-3" points="206.36 199.73 200.01 204.94 197.01 203.79"/><line class="cls-3" x1="203.3" y1="176.8" x2="191.43" y2="207.82"/><line class="cls-3" x1="167.64" y1="163.1" x2="155.75" y2="194.16"/><line class="cls-3" x1="154.87" y1="187.79" x2="150.09" y2="185.96"/><ellipse class="cls-3" cx="179.33" cy="185.37" rx="10.89" ry="8.35" transform="translate(-57.89 286.61) rotate(-69.06)"/><path class="cls-3" d="M183.63,74.39l6.18,2.52c1.68.68,2.54,1.62,2.71,2.89s.15,7.51.53,9.62,1.63,2.77,4.06,3.75l24.41,9.94a4.16,4.16,0,0,0,5.43-2s9.74-24,10.43-25.63.12-4.12-2.83-5.32L210.8,60.5c-3.34-1.35-5.22-.67-7.11.81s-4.52,5.23-6.24,6a5.31,5.31,0,0,1-4.24-.3c-1-.4-5.61-2.33-5.61-2.33"/><path class="cls-3" d="M183.33,75.13a1.13,1.13,0,0,1-1.71.65l-3.31-1.35a1.23,1.23,0,0,1-.68-1.79c.49-1.18,4.12-10.11,4.48-11a1.3,1.3,0,0,1,1.91-.74l3.66,1.49c.54.21.51.79.14,1.71Z"/><path class="cls-3" d="M178.66,70.13l-2.94-1.2c-.62-.25-1-.37-.59-1.39s1.57-3.86,1.76-4.3.62-.47,1.15-.25l3,1.23"/><rect class="cls-3" x="204.91" y="75.92" width="21.76" height="11.74" transform="translate(58.7 250.85) rotate(-67.86)"/><path class="cls-3" d="M203.29,67.81s2.44-3.28,3.34-3.47a15.08,15.08,0,0,1,2.83,0"/><path class="cls-3" d="M12.79,119.4s-11.42,3.9-12.33,4-8-2.43-11.18-1.56-7,3.86-12.5,6.26-11.45,4.26-13.93,5.17-2.1,2-1.45,3.44c0,0,6.66,15.18,7.16,16.3s1.72,1.19,3.11.54,9.45-5.15,12.89-6.66,11.69-3.67,13.87-5.4,5-8.31,5.74-9,11.61-6.31,11.61-6.31.63,1.18,2.53.34,1.51-3.08,1.24-3.72l-1.91-4.34a2.76,2.76,0,0,0-3.52-1.18C12.25,118.13,12.79,119.4,12.79,119.4Z"/><line class="cls-3" x1="15.78" y1="126.21" x2="12.79" y2="119.4"/><path class="cls-3" d="M296.26,119.4s-11.42,3.9-12.33,4-8-2.43-11.19-1.56-7,3.86-12.49,6.26-11.45,4.26-13.93,5.17-2.11,2-1.46,3.44L252,153c.5,1.13,1.72,1.19,3.12.54s9.44-5.15,12.88-6.66,11.7-3.67,13.87-5.4,4.95-8.31,5.74-9,11.62-6.31,11.62-6.31.62,1.18,2.52.34,1.52-3.08,1.24-3.72l-1.91-4.34a2.75,2.75,0,0,0-3.52-1.18C295.72,118.13,296.26,119.4,296.26,119.4Z"/><ellipse class="cls-3" cx="264.07" cy="137.49" rx="10.68" ry="6.39" transform="translate(-33 117.81) rotate(-23.71)"/><line class="cls-3" x1="266.41" y1="124.92" x2="268.76" y2="130.28"/><line class="cls-3" x1="274.97" y1="144.42" x2="272.58" y2="138.97"/><line class="cls-3" x1="262.46" y1="149.66" x2="260.3" y2="144.75"/><line class="cls-3" x1="254.06" y1="130.55" x2="256.2" y2="135.43"/><path class="cls-3" d="M109.47,246.4c-1.15,1-3.37,2.2-6.14-.87L66.4,204.8A12.38,12.38,0,0,1,64,197.56c.13-2.6,1-7.48-3.73-12.67L48.35,171.8c-.4-.44-.8-1.09.27-2.06l5.76-5.23c.37-.33,1-.4,1.87.6l11.75,13a17.21,17.21,0,0,0,11.4,5c5.08,0,6.77,2.2,8.35,3.94l36,39.7c1.82,2,2.7,4.3.66,6.15Z"/><line class="cls-3" x1="51" y1="174.72" x2="58.66" y2="167.77"/><line class="cls-3" x1="68.27" y1="178.37" x2="60.6" y2="185.32"/><polyline class="cls-3" points="69.23 207.92 82.29 196.07 113.52 230.52 100.45 242.36"/><path class="cls-3" d="M74.94,214.22l14.51,16c3.61-3.27,3.28-9.5-.72-13.92S78.55,211,74.94,214.22Z"/><path class="cls-3" d="M165.69,27.44l-1.83,2.22c-.76.94-2.16,1.11-3.15,1.34s-7.49,1.14-7.67,1.27-29.46,36.84-30.37,37.95-1.86,1-2.27,1.47l-2.55,3.1c-1.4,1.72-.32,2.37.34,2.92l14.05,11.53a2.15,2.15,0,0,0,3-.21L137.75,86c.49-.6.15-1.92.81-2.73s31-36.79,31.28-37.1-.14-7.24-.22-8.2a3.9,3.9,0,0,1,.62-2.79c.62-.75,2-2.3,2-2.3"/><path class="cls-3" d="M182,19.59c.53.44,1.06.73-.08,2.13s-7.84,9.54-8.43,10.27-1.17,1.16-2.37.18l-4.59-3.77c-.62-.51-1.44-1.25-.6-2.26l8.65-10.55c.6-.73,1.06-1.21,2.25-.24Z"/><line class="cls-3" x1="172.8" y1="17.79" x2="180.19" y2="23.85"/><path class="cls-3" d="M158.74,41.88c4.21,3.46,4.5,5.81,3.87,6.58S161,51.18,160,50.35s-1.47-3.16-3.92-5.17-4.26-1.54-5.21-2.33,1.07-2.66,1.51-3.2S156,39.6,158.74,41.88Z"/><rect class="cls-3" x="142.21" y="51.14" width="11.42" height="9.06" transform="matrix(0.77, 0.63, -0.63, 0.77, 68.88, -81.19)"/><line class="cls-3" x1="130.46" y1="69.02" x2="138.13" y2="75.31"/><line class="cls-3" x1="128.07" y1="72.22" x2="135.74" y2="78.51"/><path class="cls-3" d="M168.85,85.1a1.72,1.72,0,0,1,.2,2.8c-.8.82-15,15.93-15.42,16.38a2.07,2.07,0,0,1-3.06,0l-8.47-7c-1-.86-1-2.27-.17-3.57s12.26-17,12.76-17.69,1.21-1.6,2.93-.19Z"/><line class="cls-3" x1="167.34" y1="90.01" x2="153.06" y2="78.3"/><line class="cls-3" x1="142.74" y1="92.57" x2="155.07" y2="102.69"/><path class="cls-3" d="M26,148.54s-3.27,1.51-4.94,2.3a13.9,13.9,0,0,0-7.23,9.67c-1.25,6-.16,8.64-.41,9.84s-2.23,2.87-2.58,4.55S5.08,202.6,4.37,206,5,212.57,9,213.4c3.61.75,6-1.59,7.06-1.36s1.85,3.21,5.95,4.07,6.66-1.82,7.36-5.19,6.09-29.26,6.47-31.07-.91-4.08-.73-4.92,2.46-3.39,3.62-8.92a15.31,15.31,0,0,0-2.5-11.83,46.13,46.13,0,0,0-4-4.35"/><path class="cls-3" d="M34.29,142a1.88,1.88,0,0,1,1.61,2.53l-.74,3.55c-.14.67-.8,1.41-3.2.91l-5.66-1.18c-1.15-.24-2.28-.54-1.89-2.4l.8-3.86c.15-.72.59-1.32,2.34-1Z"/><line class="cls-3" x1="10.61" y1="176.04" x2="35.53" y2="181.24"/><line class="cls-3" x1="30.11" y1="207.25" x2="5.19" y2="202.05"/><path class="cls-3" d="M-7.67,21.67-4.34,29c.69,1.52,3.06,3.4,5.42,4.77s5.06,3.34,6.18,5.79S19.7,66.78,20.31,68.1s.54,3.25-1.06,4L7.78,77.32a3.06,3.06,0,0,1-4.41-1.63C2.24,73.23-8.81,49-9.63,47.22a15.79,15.79,0,0,1-.5-8.38c.6-3,.4-6.54-.38-8.25s-2.88-6.31-2.88-6.31"/><path class="cls-3" d="M34,65.42c3.38-1.54,4-1.86,3.67-2.62s-4.08-1.17-5.17-.68-2.87,3.95-2.7,4.34S30.74,66.93,34,65.42Z"/><path class="cls-3" d="M13.33,36.74s2.9,9,3.78,11,4.44,6.73,10.56,3.94a8,8,0,0,0,4-10.7c-.9-1.57-5.78-10-5.78-10Z"/><line class="cls-3" x1="32.54" y1="62.12" x2="27.74" y2="51.62"/><path class="cls-3" d="M9.78,45.05.29,49.38a1.53,1.53,0,0,0-.75,2.16c.42.92,3.91,8.56,4.25,9.32s.73,1.15,2,.58l9.5-4.34"/><line class="cls-3" x1="16.46" y1="46.04" x2="30.86" y2="39.47"/><path class="cls-3" d="M275.8,21.67,279.12,29c.69,1.52,3.06,3.4,5.43,4.77s5.05,3.34,6.17,5.79l13,28.59c.61,1.32.55,3.25-1,4l-11.48,5.24a3.06,3.06,0,0,1-4.41-1.63c-1.13-2.46-12.18-26.67-13-28.47s-1.1-5.37-.5-8.38.4-6.54-.38-8.25l-2.88-6.31"/><path class="cls-3" d="M273,23l-3.33,1.52c-1.3.59-1.66.15-2.1-.81a1.58,1.58,0,0,1,.68-2.23l3.35-1.53,3.66-1.67c.91-.41,1.52-.11,2,.94s.22,1.73-.45,2Z"/><path class="cls-3" d="M268.21,21.44l-2.62-5.73c-.27-.6-.16-1.47,1.24-2.11l3.35-1.53c1-.43,1.95-.39,2.41.63l2.55,5.58"/><path class="cls-3" d="M293.25,45.05l-9.49,4.33a1.52,1.52,0,0,0-.76,2.16l4.26,9.32c.35.76.72,1.15,2,.58l9.5-4.34"/><path class="cls-3" d="M115.74-7.45l1,.87c.52.45,1,1.85,2.1,4.88a13.4,13.4,0,0,0,3.25,5.61l8.23,7.18c.85.74,4.14,1.45,6.8,3.78s3.78,5,6.11,7,4.89,2,5.75,1a5.12,5.12,0,0,0,1.1-1.88A2.2,2.2,0,0,0,152,20a2.57,2.57,0,0,0,.73-2.07s.62-.15,1.7-1.39.52-3.49-1.55-5.3-6.71-4.12-8.17-5.4S141.18.43,140.19-.43L132-7.54A17.93,17.93,0,0,0,125.71-10c-2-.3-4.2-.91-4.82-1.45l-1-.84s.09-.36-.44-.82l-2.11-1.84a1.73,1.73,0,0,0-2.23.42c-.87,1-2.06,2.37-2.56,2.93a1.49,1.49,0,0,0,.22,2l2,1.72c.32.29.9.7,1.47,0l3.8-4.33"/><line class="cls-3" x1="120.06" y1="1.16" x2="129" y2="-9.08"/><line class="cls-3" x1="122.31" y1="4.11" x2="132.29" y2="-7.32"/><line class="cls-3" x1="130.31" y1="11.09" x2="140.28" y2="-0.34"/><path class="cls-3" d="M115.74,276l1,.87c.52.45,1,1.86,2.1,4.88a13.53,13.53,0,0,0,3.25,5.62l8.23,7.17c.85.75,4.14,1.46,6.8,3.79s3.78,5,6.11,7,4.89,2,5.75,1a5.12,5.12,0,0,0,1.1-1.88,2.17,2.17,0,0,0,1.94-1,2.55,2.55,0,0,0,.73-2.06s.62-.15,1.7-1.4.52-3.49-1.55-5.3-6.71-4.12-8.17-5.39-3.54-5.45-4.53-6.32L132,275.92a17.93,17.93,0,0,0-6.33-2.42c-2-.31-4.2-.92-4.82-1.46l-1-.83s.09-.36-.44-.82l-2.11-1.85a1.74,1.74,0,0,0-2.23.43l-2.56,2.93a1.48,1.48,0,0,0,.22,2l2,1.72c.32.29.9.7,1.47,0l3.8-4.34"/><line class="cls-3" x1="120.06" y1="284.62" x2="129" y2="274.38"/><line class="cls-3" x1="122.31" y1="287.58" x2="132.29" y2="276.14"/><line class="cls-3" x1="130.31" y1="294.55" x2="140.28" y2="283.12"/><path class="cls-3" d="M18.32,106.2a37.62,37.62,0,0,1,7.51,5.69c2.69,3,4.6,8.13,10.66,12L59.77,138.5c1.7,1.06,4.28,1.81,6-.91l7.83-12.44c1.07-1.69,1-3.58-2.17-5.54L48.36,105.09c-7.76-4.89-12.94-3.78-15.52-4.73a73.56,73.56,0,0,1-8.16-4.26"/><path class="cls-3" d="M20.48,92.49c.84-1.34,1.34-1.53,2-1.13l2.94,1.85c.58.37.58.86,0,1.76s-7.1,11.28-7.75,12.3-1,1.46-1.94.9l-2.89-1.82c-.5-.31-.48-.93.22-2Z"/><rect class="cls-3" x="43.91" y="112.49" width="13.99" height="14.62" transform="translate(-77.6 99.06) rotate(-57.81)"/><line class="cls-3" x1="61.44" y1="135.5" x2="69.61" y2="122.52"/><path class="cls-3" d="M84.71,15S73.38,11.73,70,10.57s-8.5-4.24-14.42-8.25S41.68-5.31,37.64-6.31L19.08-10.92c-3.13-.78-4,1.39-4.22,2.14l-5,20.18c-.36,1.48.54,2.85,2.32,3.3l19,4.73c4.43,1.1,14.57,1,19.78.62s14.3-.74,16.83-.52,15,3.13,15,3.13"/><path class="cls-3" d="M90.46,23.88c-.38,1.51-1.37,1.66-2.7,1.33L84,24.28c-.81-.2-1.5-.49-1.11-2.09l1.51-6.08c.15-.61.62-2.59,1.92-2.26L90.89,15c1.07.26,1.58.82,1.24,2.18Z"/><line class="cls-3" x1="64.8" y1="8.13" x2="61.96" y2="19.55"/><polyline class="cls-3" points="55.56 2.32 48.33 9.89 50.97 20.05"/><rect class="cls-3" x="17.39" y="-1.03" width="15.58" height="10.43" transform="translate(35.31 -19.24) rotate(103.96)"/><circle class="cls-3" cx="36.58" cy="7.02" r="2.33"/><path class="cls-3" d="M84.71,298.43S73.38,295.2,70,294s-8.5-4.23-14.42-8.24-13.88-7.63-17.92-8.64l-18.56-4.61c-3.13-.78-4,1.4-4.22,2.15,0,0-4.65,18.7-5,20.17a2.74,2.74,0,0,0,2.32,3.3l19,4.73c4.43,1.1,14.57,1,19.78.62s14.3-.73,16.83-.52,15,3.13,15,3.13"/><rect class="cls-3" x="17.39" y="282.43" width="15.58" height="10.43" transform="translate(310.41 332.59) rotate(103.96)"/><path class="cls-3" d="M198.78-1.1a31.82,31.82,0,0,1-1.46,7.83c-1.2,3.15-4.39,6.55-5,12.58s-2.09,21.46-2.25,23.14.24,3.92,2.95,4.18l12.37,1.21c1.68.16,3.06-.64,3.36-3.75s1.48-15.2,2.23-22.92S209,10,208.69,7.66a62.24,62.24,0,0,1,.13-7.78"/><path class="cls-3" d="M210-4.66c1.33.13,1.66.43,1.6,1.05l-.28,2.92c-.06.58-.43.77-1.32.68L197.71-1.2c-1-.1-1.5-.23-1.41-1.12l.28-2.88c0-.49.52-.71,1.63-.61Z"/><rect class="cls-3" x="194.94" y="22.5" width="11.83" height="12.36" transform="translate(3.72 -19.32) rotate(5.56)"/><line class="cls-3" x1="192.98" y1="42.58" x2="205.88" y2="43.83"/><path class="cls-3" d="M198.78,282.37a31.78,31.78,0,0,1-1.46,7.82c-1.2,3.15-4.39,6.56-5,12.59s-2.09,21.45-2.25,23.14.24,3.92,2.95,4.18l12.37,1.2c1.68.17,3.06-.64,3.36-3.74s1.48-15.21,2.23-22.92-2-11.21-2.31-13.52a62.06,62.06,0,0,1,.13-7.77"/><path class="cls-3" d="M210,278.8c1.33.13,1.66.43,1.6,1.05l-.28,2.93c-.06.58-.43.76-1.32.68l-12.24-1.19c-1-.1-1.5-.24-1.41-1.13l.28-2.88c0-.49.52-.71,1.63-.6Z"/><path class="cls-3" d="M231.84,37.87l4.06-.54A10.49,10.49,0,0,0,243.27,32c2.25-4,2.06-6.16,2.51-7s2.24-1.55,2.87-2.68S259,3.81,260.29,1.55s1-4.88-1.64-6.37c-2.42-1.35-4.63-.21-5.36-.61s-.61-2.73-3.35-4.26-5.19-.2-6.45,2.06L231.86,13.2c-.68,1.21-.27,3.13-.59,3.7s-2.52,1.87-4.6,5.58a11.51,11.51,0,0,0-.87,9.05,35.65,35.65,0,0,0,1.89,4"/><path class="cls-3" d="M224.43,40.71a1.4,1.4,0,0,1-.58-2.17l1.33-2.39c.24-.44.88-.82,2.5.08l3.79,2.12c.77.42,1.51.89.81,2.14l-1.44,2.59c-.27.48-.72.81-1.89.16Z"/><line class="cls-3" x1="249.08" y1="21.6" x2="232.37" y2="12.27"/><line class="cls-3" x1="242.11" y1="-5.16" x2="258.82" y2="4.17"/><path class="cls-3" d="M231.84,321.33l4.06-.54a10.43,10.43,0,0,0,7.37-5.31c2.25-4,2.06-6.16,2.51-7s2.24-1.56,2.87-2.69S259,287.27,260.29,285s1-4.88-1.64-6.37c-2.42-1.35-4.63-.2-5.36-.61s-.61-2.72-3.35-4.25-5.19-.2-6.45,2.06-11,19.61-11.63,20.82-.27,3.14-.59,3.7-2.52,1.87-4.6,5.59a11.48,11.48,0,0,0-.87,9,34.75,34.75,0,0,0,1.89,4"/><line class="cls-3" x1="242.11" y1="278.3" x2="258.82" y2="287.63"/><path class="cls-3" d="M187.93,233.07a23.63,23.63,0,0,0,3.07,5.2c1.61,1.77,3.09,2.66,4.1,3.78s.67,2.61.32,6.72a10.09,10.09,0,0,0,3.06,8.56L212,272.25c1.44,1.58,4.06,1.85,5.34.69l11.77-10.68c.86-.77,1.58-3.5.37-4.83l-14.23-15.7c-1.73-1.9-4.95-3.92-7.93-3.75s-5.81.39-6.84-.74-1.74-2.87-3.17-4.44a29.09,29.09,0,0,0-5-3.69"/><path class="cls-3" d="M192.05,229.34c1-.9,1.34-1.27.7-2L191,225.45c-.25-.28-.68-.82-1.79.18l-4.57,4.15c-.47.42-.73,1.06-.29,1.54l2,2.23c.31.34.73.25,1.23-.2Z"/><line class="cls-3" x1="193.31" y1="240.37" x2="199.08" y2="235.14"/><rect class="cls-3" x="205.34" y="248.49" width="12.73" height="12.73" transform="translate(-116.33 208.3) rotate(-42.21)"/><rect class="cls-3" x="224.65" y="229.58" width="20.59" height="23.33" transform="translate(-101.16 220.38) rotate(-42.21)"/><rect class="cls-3" x="234.82" y="234.33" width="5.69" height="5.69" transform="translate(-97.72 221.16) rotate(-42.21)"/><rect class="cls-3" x="232.05" y="241.14" width="5.69" height="5.69" transform="translate(-46.27 55.18) rotate(-12.21)"/><rect class="cls-3" x="225.49" y="237.59" width="5.69" height="5.69" transform="translate(-87.54 139.59) rotate(-28.77)"/><line class="cls-3" x1="223.12" y1="243.53" x2="225.57" y2="241.31"/><line class="cls-3" x1="229.91" y1="237.37" x2="238.37" y2="229.7"/><line class="cls-3" x1="232.47" y1="253.84" x2="247.71" y2="240.01"/><line class="cls-3" x1="217.38" y1="266.29" x2="222.53" y2="261.62"/><path class="cls-3" d="M-27,204.34l.88,2.56c.38,1.08-.17,2.28-.47,3.19s-2.79,6.59-2.77,6.79,15,41.86,15.47,43.14-.14,2,.06,2.55l1.23,3.57c.69,2,1.75,1.44,2.51,1.17l16.21-5.59a2,2,0,0,0,1.3-2.49l-1.22-3.55c-.24-.69-1.47-1.07-1.79-2S-9.87,210.59-10,210.23s-5.88-3.46-6.69-3.87a3.71,3.71,0,0,1-1.94-1.88c-.29-.86-.84-2.76-.84-2.76"/><path class="cls-3" d="M20.82,230.27a1.63,1.63,0,0,1,2.36,1.23c.25,1.05,5.39,19.88,5.53,20.48a2,2,0,0,1-1.51,2.45l-9.77,3.37c-1.21.42-2.3-.35-2.95-1.63s-7.62-18.25-7.91-19-.68-1.76,1.3-2.45Z"/><line class="cls-3" x1="24.02" y1="233.92" x2="7.56" y2="239.6"/><line class="cls-3" x1="13.93" y1="254.94" x2="28.15" y2="250.03"/><path class="cls-3" d="M256.42,204.34l.88,2.56c.37,1.08-.18,2.28-.48,3.19s-2.79,6.59-2.77,6.79,15,41.86,15.48,43.14-.14,2,.05,2.55l1.24,3.57c.68,2,1.74,1.44,2.51,1.17l16.2-5.59a2,2,0,0,0,1.31-2.49l-1.22-3.55c-.24-.69-1.47-1.07-1.8-2s-14.22-43.09-14.35-43.45-5.88-3.46-6.69-3.87a3.69,3.69,0,0,1-1.93-1.88c-.3-.86-.85-2.76-.85-2.76"/><path class="cls-3" d="M258.18,187.34c.62-.22,1.12-.49,1.67,1.11l4.09,11.85c.29.83.36,1.5-1,2l-5.29,1.83c-.72.25-1.71.54-2.12-.64s-3.91-11.32-4.19-12.15-.45-1.46.91-1.93Z"/><line class="cls-3" x1="252.18" y1="193.85" x2="260.7" y2="190.91"/><path class="cls-3" d="M264.58,217.05c4.86-1.67,6.89-.74,7.2.14s1.37,2.66.2,3.07-3.26-.38-6.09.6-3.34,2.65-4.44,3-1.61-2.17-1.82-2.8S261.37,218.16,264.58,217.05Z"/><rect class="cls-3" x="264.93" y="228.28" width="10.77" height="8.54" transform="translate(-61.08 100.91) rotate(-19.04)"/><line class="cls-3" x1="272.41" y1="253.17" x2="281.25" y2="250.12"/><line class="cls-3" x1="273.81" y1="256.67" x2="282.64" y2="253.62"/><path class="cls-3" d="M81.51,259.12l-3.76-4a3,3,0,0,1-1-3.07c.3-1,2.41-5.65,2.84-7.35s-.28-2.62-1.76-4.17L62.92,224.94a3.4,3.4,0,0,0-4.72-.34L41.79,240.2c-1.08,1-1.48,3,.32,4.92l14.46,15.21c2,2.14,3.67,2.26,5.57,1.79s5.14-2.38,6.66-2.34a4.35,4.35,0,0,1,3.07,1.65c.6.63,3.4,3.63,3.4,3.63"/><path class="cls-3" d="M82,258.67a.94.94,0,0,1,1.5.09l2,2.12a1,1,0,0,1-.1,1.57l-7,6.69a1.06,1.06,0,0,1-1.67-.09l-2.23-2.35c-.33-.34-.11-.76.47-1.32Z"/><path class="cls-3" d="M83.79,264l1.78,1.87c.38.4.62.62,0,1.24l-2.75,2.62c-.29.27-.63.14-1-.2L80,267.57"/><rect class="cls-3" x="51.11" y="237.96" width="17.81" height="9.61" transform="translate(270.8 377.33) rotate(136.44)"/><path class="cls-3" d="M64.63,257.41S61.7,259,61,258.87a12.12,12.12,0,0,1-2.12-.92"/><path class="cls-3" d="M270.77,102.72s-2.29-8.35-2.85-10.93-.57-7-.31-12.21A51,51,0,0,0,266.22,65l-4.17-13.42c-.7-2.26-2.41-2-3-1.84L244.5,54.3A2,2,0,0,0,243.31,57l4.27,13.76c1,3.21,4.93,9.53,7.14,12.67s5.91,8.71,6.74,10.38,3.74,10.62,3.74,10.62"/><path class="cls-3" d="M267.35,109.74c-1.09.33-1.56-.23-1.86-1.2l-.84-2.7c-.18-.58-.26-1.13.89-1.49l4.4-1.37c.44-.13,1.86-.6,2.15.34l1,3.29c.24.78.09,1.31-.9,1.62Z"/><line class="cls-3" x1="267.48" y1="87.6" x2="259.22" y2="90.17"/><polyline class="cls-3" points="267.61 79.58 260.1 77.92 254.72 83.45"/><rect class="cls-3" x="249.15" y="57.36" width="11.45" height="7.67" transform="translate(516.43 44.05) rotate(162.75)"/><circle class="cls-3" cx="257.43" cy="69.44" r="1.71"/><path class="cls-3" d="M197.28,152.58c-.8-.69-1.76-2.08.06-4.2l24.26-28.27a8.35,8.35,0,0,1,4.66-2.26c1.76-.14,5.11,0,8.2-3.58l7.79-9.09c.27-.31.67-.63,1.41,0l4,3.43c.25.22.35.61-.25,1.3l-7.72,9a11.66,11.66,0,0,0-2.4,8.09,6.53,6.53,0,0,1-2,6L211.71,160.5c-1.19,1.4-2.66,2.18-4.08,1Z"/><line class="cls-3" x1="240.52" y1="107.21" x2="245.84" y2="111.77"/><line class="cls-3" x1="239.52" y1="119.13" x2="234.21" y2="114.56"/><polyline class="cls-3" points="219.75 122.27 228.81 130.05 208.3 153.96 199.23 146.18"/><path class="cls-3" d="M216,126.65l-9.53,11.1c2.51,2.15,6.67,1.41,9.3-1.66S218.5,128.79,216,126.65Z"/><path class="cls-3" d="M262.65,168.13l-5.54.38c-4.05.27-7.31-2.9-8.69-4.38a7.81,7.81,0,0,0-5.41-2.39c-1.83,0-14,2.47-15,2.65s-1.63.56-1.57,1.44c0,0,.9,13.46,1,14.21s.48,1,1.39,1.11,13.75.8,16.15.64,4-2.68,4.83-3.79,4.17-4.57,7.54-4.8l5.66-.38"/><path class="cls-3" d="M269.7,171.93c0,.49-.12.91-1.12,1l-4.85.33c-.51,0-.74-.16-.8-1l-.23-3.45c0-.49-.12-1.12.54-1.17l5-.33c.53,0,1.17,0,1.23.95Z"/><line class="cls-3" x1="266.46" y1="167.43" x2="266.84" y2="173.03"/><ellipse class="cls-3" cx="239.28" cy="172.29" rx="6.4" ry="4.26" transform="matrix(1, -0.07, 0.07, 1, -11.05, 16.5)"/><line class="cls-3" x1="241.42" y1="161.92" x2="241.85" y2="168.28"/><line class="cls-3" x1="234.44" y1="163.15" x2="234.86" y2="169.37"/><line class="cls-3" x1="235.68" y1="181.55" x2="235.29" y2="175.78"/><line class="cls-3" x1="242.77" y1="181.93" x2="242.36" y2="175.91"/><path class="cls-3" d="M117.48,133.33l2.6,1.85a8.12,8.12,0,0,0,7,.9c3.43-1.1,4.45-2.41,5.14-2.62s2.1.31,3.07,0L153,127.8a3.38,3.38,0,0,0,2.46-4.49c-.65-2.06-2.53-2.59-2.72-3.21s1.1-1.87.36-4.21-2.85-2.87-4.77-2.26l-17.72,5.66c-1,.33-1.82,1.64-2.3,1.79a18.64,18.64,0,0,0-5.6.73,9,9,0,0,0-5.31,4.69,27.06,27.06,0,0,0-1.07,3.29"/><path class="cls-3" d="M111.74,131a1.11,1.11,0,0,1,.83-1.56l2-.64c.38-.12.94,0,1.38,1.37l1,3.23c.21.65.39,1.31-.68,1.65l-2.2.71c-.41.13-.84.08-1.16-.92Z"/><line class="cls-3" x1="135.96" y1="133.25" x2="131.42" y2="119.04"/><line class="cls-3" x1="146.25" y1="114.3" x2="150.79" y2="128.52"/><path class="cls-3" d="M166.7,220.78l-1.81,7c-.37,1.47.22,4.14,1.12,6.46s1.66,5.24,1.05,7.61-6.75,26.35-7.08,27.63-1.47,2.6-3,2.21l-11.09-2.85a2.78,2.78,0,0,1-2.19-3.66c.61-2.38,6.61-25.78,7.05-27.51a14.34,14.34,0,0,1,4.43-6.21c2.14-1.78,4-4.39,4.43-6l1.56-6.1"/><path class="cls-3" d="M164,220.08l-3.22-.83c-1.26-.32-1.26-.84-1-1.77a1.43,1.43,0,0,1,1.75-1.18l3.24.83,3.53.9c.88.23,1.14.79.88,1.8s-.83,1.36-1.48,1.19Z"/><path class="cls-3" d="M161.47,216.3l1.42-5.55c.15-.58.72-1.13,2.07-.78l3.24.83c.93.24,1.6.84,1.35,1.82L168.17,218"/><path class="cls-3" d="M171.21,275.46c3.26.83,3.89,1,4.08.24s-2.21-3.16-3.26-3.43-4.28,1.15-4.38,1.53S168,274.64,171.21,275.46Z"/><path class="cls-3" d="M172.93,243.39s-3.1,8-3.58,9.92-.71,7.28,5.2,8.79a7.25,7.25,0,0,0,9-5.24l1.6-10.34Z"/><line class="cls-3" x1="172.03" y1="272.27" x2="174.63" y2="262.12"/><path class="cls-3" d="M165.69,247.24l-9.17-2.35a1.37,1.37,0,0,0-1.76,1.09c-.23.89-2.12,8.28-2.31,9s-.15,1.23,1.07,1.54l9.19,2.35"/><line class="cls-3" x1="169.84" y1="251.75" x2="183.76" y2="255.31"/><path class="cls-3" d="M142.58,213.37a25.67,25.67,0,0,1-2.53-5.91c-.6-2.65,0-6.36-2.27-10.67s-8.19-15.35-8.84-16.55-1.91-2.52-3.85-1.49l-8.84,4.72c-1.2.64-1.77,1.8-.58,4l8.74,16.39c3,5.51,6.39,6.61,7.6,8a50.85,50.85,0,0,1,3.39,5.28"/><path class="cls-3" d="M136.66,220.76c-.95.51-1.3.45-1.54,0L134,218.68c-.22-.42-.05-.71.59-1.05l8.75-4.67c.72-.39,1.11-.51,1.45.12l1.1,2.06c.18.35,0,.71-.83,1.14Z"/><rect class="cls-3" x="123.11" y="189.32" width="9.54" height="9.97" transform="translate(332.18 305.5) rotate(151.91)"/><line class="cls-3" x1="126.94" y1="181.45" x2="117.72" y2="186.37"/><path class="cls-3" d="M186.65,103.45s-2.86,8-3.87,10.35-3.44,5.89-6.6,10a49.65,49.65,0,0,0-7.07,12.43c-.91,2.85-3.49,10.88-4.2,13.08s.81,3,1.34,3.14L180.47,157a2,2,0,0,0,2.48-1.5c.4-1.26,3.31-10.3,4.31-13.42s1.42-10.4,1.41-14.15.16-10.29.44-12.1,3-10.6,3-10.6"/><path class="cls-3" d="M193.33,99.76c1.06.34,1.12,1.06.82,2l-.85,2.64c-.18.57-.43,1-1.55.69l-4.29-1.38c-.43-.14-1.83-.56-1.53-1.48L187,99c.24-.75.67-1.09,1.63-.78Z"/><line class="cls-3" x1="180.78" y1="117.4" x2="188.84" y2="119.99"/><polyline class="cls-3" points="176.18 123.75 181.25 129.3 188.67 127.9"/><rect class="cls-3" x="170.44" y="141.87" width="11.2" height="7.5" transform="translate(53 -46.88) rotate(17.82)"/><circle class="cls-3" cx="178.62" cy="137.58" r="1.67"/></g></svg>