<svg id="Laag_1" data-name="Laag 1" xmlns="http://www.w3.org/2000/svg" viewBox="0 0 688.43 681.53"><defs><style>.cls-1{fill:#8fc36c;}.cls-2{fill:#fff;}</style></defs><path class="cls-1" d="M347.64,587.25c131.35,0,237.82-106.48,237.82-237.83S479,111.6,347.64,111.6,109.82,218.07,109.82,349.42,216.29,587.25,347.64,587.25"/><path class="cls-2" d="M434.12,240.1a7.54,7.54,0,0,0-7.08-4.91c-61.5,0-113.14,20.26-141.68,55.6C263,318.47,255.65,353.7,264,392.7l14.79-3.19c-7.41-34.37-1.08-65.22,18.3-89.21C320.26,271.65,361,254,410.51,250.84c-10,16.84-9.85,37-9.73,56.68.27,41.66.47,81-86.09,100.68,3.94-42,22.93-79.5,51-94.25l-7-13.39c-51.27,26.89-68.61,104.05-55.76,163.1l14.78-3.22a169,169,0,0,1-3.8-36.61c102.54-22,102.25-74.3,102-116.42-.15-24-.28-44.71,16.11-59A7.52,7.52,0,0,0,434.12,240.1Z"/><path class="cls-2" d="M198.31,416.53a26.79,26.79,0,0,1-6.3,2.36l-2.83-7.56L166,420l2.88,7.66A26.46,26.46,0,0,1,162.6,430l-5.77-15.39,29.45-11-2.83-7.56a26.77,26.77,0,0,1,6.29-2.36Z"/><path class="cls-2" d="M174.26,356.44c7.75-.83,11,4.61,11.88,13.26s-1,14.71-8.78,15.55l-18.81,2c-7.69.83-10.9-4.67-11.83-13.32s1-14.66,8.73-15.48Zm-16.47,10.07c-4.32.46-4.57,3.44-4.22,6.7s1.23,6.17,5.56,5.71L175,377.21c4.33-.46,4.57-3.44,4.22-6.76s-1.23-6.11-5.56-5.65Z"/><path class="cls-2" d="M177.53,315.69c7.72,1.07,9.51,7.14,8.31,15.75s-4.57,14-12.29,12.95l-18.74-2.6c-7.66-1.06-9.44-7.18-8.24-15.8s4.56-14,12.22-12.9Zm-18.42,5.77c-4.3-.6-5.27,2.24-5.72,5.48s-.3,6.29,4,6.89L173.17,336c4.31.6,5.28-2.23,5.73-5.53s.3-6.23-4-6.83Z"/><path class="cls-2" d="M169.67,280.19c4.62,1.83,4.77,6.2,2.55,11.82-2.17,5.46-5.32,8.65-10,6.79l-4.73-1.87c-4.67-1.85-4.77-6.33-2.61-11.79,2.23-5.62,5.33-8.7,10-6.85Zm-6.48,4.71c-2.47-1-3.35.32-4,2s-.88,3.11,1.59,4.09l3.15,1.25c2.42,1,3.35-.31,4-1.89s.84-3.19-1.57-4.15Zm.27-20.61a14.79,14.79,0,0,1,1.83-4.62L193.21,295a14.68,14.68,0,0,1-1.83,4.62Zm35.69-1.88c4.61,1.83,4.84,6.17,2.61,11.79s-5.39,8.68-10.06,6.82L187,279.17c-4.73-1.87-4.83-6.35-2.65-11.86s5.32-8.65,10-6.78Zm-6.44,4.74c-2.47-1-3.4.29-4,1.86s-.84,3.19,1.63,4.17l3.15,1.25c2.41,1,3.34-.31,4-1.94s.82-3.14-1.6-4.1Z"/><path class="cls-2" d="M219.87,246.6l-27.62-26.36,16.38-17.16a25.94,25.94,0,0,1,4.82,4.6l-10.68,11.19,6.49,6.2,10.3-10.78a25.75,25.75,0,0,1,4.74,4.52L214,229.6l6.74,6.43,10.69-11.19a26.26,26.26,0,0,1,4.82,4.6Z"/><path class="cls-2" d="M242.9,223.25,221,192a51,51,0,0,1,6.76-4.73l18.07,25.82,12.45-8.71a26.25,26.25,0,0,1,3.82,5.46Z"/><path class="cls-2" d="M268.1,205.84l-15.19-35,21.76-9.44a26.29,26.29,0,0,1,2.65,6.11l-14.19,6.16,3.57,8.24L280.38,176a25.49,25.49,0,0,1,2.6,6l-13.67,5.93,3.7,8.55,14.2-6.16a26.18,26.18,0,0,1,2.65,6.12Z"/><path class="cls-2" d="M305.6,175.52l-2.38.79,3.12,14.82a51.31,51.31,0,0,1-8.07,1.69l-7.86-37.36a50.91,50.91,0,0,1,8.07-1.7l3.22,15.31,2.87-.89,6-17a58.83,58.83,0,0,1,8.68-1.83l-7.58,20.76L328,186.57a66,66,0,0,1-9.34,2Z"/><path class="cls-2" d="M342,154.51l-10.79.09a26.48,26.48,0,0,1-.06-6.66l29.82-.25a32.27,32.27,0,0,1,.06,6.66l-10.79.09.27,31.52a51.59,51.59,0,0,1-8.25.07Z"/><path class="cls-2" d="M401.34,170.15c-1.14,4.78-4.51,6.77-9.58,6.83a90,90,0,0,1,4.75,16.12,55,55,0,0,1-8.41-2,86.13,86.13,0,0,0-4.56-15.2l-4-.95-3.18,13.35a51.14,51.14,0,0,1-8-1.91l8.85-37.14,12.37,2.95c9.39,2.24,14.61,6.15,12.92,13.24Zm-7.28-5c.95-4-2.16-5.33-6.11-6.27l-4.34-1-2.51,10.5,4.35,1c3.95,1,7.32,1.17,8.24-2.68Z"/><path class="cls-2" d="M418.66,160.74a51.24,51.24,0,0,1,7.67,3l-14.08,35.49a49.51,49.51,0,0,1-7.67-3Z"/><path class="cls-2" d="M446.54,208.09c-3.29,5.73-9,5.3-16.53,1a76.4,76.4,0,0,1-9.67-6.52,23.56,23.56,0,0,1,3.43-6,90.54,90.54,0,0,0,9.57,6.47c2.75,1.57,5.22,2.48,6.71-.12l.93-1.62c1.24-2.15.71-2.71-1.57-5.2l-5.62-6.21c-2.43-2.7-3.29-5.28-.65-9.88l1.88-3.29c3.32-5.78,9.48-5.05,16.73-.89a50.18,50.18,0,0,1,9.09,6.52,19,19,0,0,1-3.32,5.78,60.59,60.59,0,0,0-9-6.26c-3-1.74-5.49-2.69-7,0l-.79,1.37c-1,1.81-.5,2.58,1.9,5.32l5.37,6.08c2.45,2.77,3.35,5,.6,9.85Z"/><path class="cls-2" d="M468.39,199.56c5.54-5.8,11.78-3.43,18.57,3a53.53,53.53,0,0,1,6.81,7.92,26.19,26.19,0,0,1-4.56,4.78,55.71,55.71,0,0,0-6-6.78c-3.47-3.31-6.53-5.68-10-2l-10.29,10.78c-3.44,3.6-1,6.58,2.5,9.89a45.36,45.36,0,0,0,7.48,5.42,27.81,27.81,0,0,1-4,5.25,44.22,44.22,0,0,1-9.3-6.54c-6.78-6.47-9.48-12.56-3.94-18.36Z"/><path class="cls-2" d="M499.36,253.51l-7.68-11-13,9.1A51.45,51.45,0,0,1,474,244.9L505.23,223a51.08,51.08,0,0,1,4.73,6.75L497.6,238.4l7.68,11,12.35-8.65a49.71,49.71,0,0,1,4.73,6.75l-31.27,21.9a49.44,49.44,0,0,1-4.73-6.75Z"/><path class="cls-2" d="M509.49,296.83a8.36,8.36,0,1,1,10.46,5.5A8.45,8.45,0,0,1,509.49,296.83Z"/><path class="cls-2" d="M538.49,327.47c8-.46,11,5.53,11.5,14.89a53.76,53.76,0,0,1-.42,10.44,26.22,26.22,0,0,1-6.6.38,55.35,55.35,0,0,0,.22-9.07c-.28-4.79-.9-8.6-5.92-8.31l-14.88.86c-5,.29-5.19,4.15-4.92,8.94a46.11,46.11,0,0,0,1.77,9.06,27.1,27.1,0,0,1-6.5,1.11,44.7,44.7,0,0,1-2.34-11.12c-.54-9.36,1.65-15.65,9.65-16.12Z"/><path class="cls-2" d="M515.13,395.51c-7.66-1.45-9.09-7.92-7.39-16.91s5.37-14.51,13-13.07l18.6,3.51c7.6,1.43,9,7.85,7.33,16.89s-5.37,14.51-13,13.08Zm18.68-4.88c4.27.81,5.43-2.31,6.12-6s.74-7-3.53-7.79l-15.65-2.95c-4.28-.81-5.45,2.37-6.13,6s-.74,7,3.54,7.8Z"/><path class="cls-2" d="M491.21,395.94l6.08,2.74c3.68,1.67,4.72,4.4,4.4,8.75l-.54,7c-.24,3.3-.32,4.62,1,5.24l.48.21c1.88.85,3.34-1.49,5.13-5.46a89.05,89.05,0,0,0,3.35-9,25.54,25.54,0,0,1,5.14,2.32,67.27,67.27,0,0,1-3.75,10.17c-3.4,7.55-7.42,11.29-12.33,9.08l-1.13-.51c-3.25-1.47-4.17-3.59-3.73-8.84l.62-7.27c.2-2.46.32-4.11-1.47-4.92l-.94-.43-7.43,16.46A22.15,22.15,0,0,1,480.8,419Z"/><path class="cls-2" d="M494.88,466.64l-18.62-16.12a39.7,39.7,0,0,1,5.39-6.23l28.87,25a58.1,58.1,0,0,1-5.84,6.74l-27.8-6.28,19,16.45a50.2,50.2,0,0,1-5.39,6.23l-28.87-25a61.14,61.14,0,0,1,5.95-6.87Z"/><path class="cls-2" d="M454.06,474.4,476,505.68l-19.44,13.61a26.79,26.79,0,0,1-3.82-5.46L465.38,505l-5.15-7.36L448,506.15a25.44,25.44,0,0,1-3.75-5.37l12.21-8.55-5.35-7.64-12.67,8.88a26.14,26.14,0,0,1-3.82-5.46Z"/><path class="cls-2" d="M422.28,536.75a48.63,48.63,0,0,1-7.46,3.24l-11.33-26.12c-3.08-7.09,1.36-11.91,9.7-15.53s15-3.61,18.08,3.49l11.32,26.11a49.56,49.56,0,0,1-7.56,3.28l-10.72-24.71c-1.71-3.94-4.91-3.23-8.33-1.74s-6.13,3.33-4.42,7.27Z"/><path class="cls-2" d="M389.16,539.88l10.56-2.22a26.37,26.37,0,0,1,1.37,6.52l-29.18,6.14a32.46,32.46,0,0,1-1.37-6.53l10.56-2.22-6.49-30.84a50.26,50.26,0,0,1,8.07-1.69Z"/><path class="cls-2" d="M327.69,535.64c.2-4.91,3.13-7.5,8.09-8.55A88.81,88.81,0,0,1,328,512.2a54.09,54.09,0,0,1,8.63.35,86,86,0,0,0,7.4,14l4.12.17.56-13.71a49.32,49.32,0,0,1,8.24.33l-1.55,38.15-12.7-.51c-9.65-.4-15.53-3.24-15.23-10.52Zm8.11,3.5c-.17,4.11,3.14,4.81,7.2,5l4.46.18.44-10.78-4.46-.18c-4.07-.16-7.42.27-7.58,4.22Z"/><path class="cls-2" d="M297.24,513.54l12.21,3.53,4.73-7.21a51.93,51.93,0,0,1,8.09,2.34l-23.54,32.93a46.19,46.19,0,0,1-7.65-2.22L288.8,502.5a55,55,0,0,1,8.24,2.39Zm.4,21.34,8-12.08-8.3-2.41Z"/><path class="cls-2" d="M260.05,497.07l11,6.33,6.31-5.89a52.19,52.19,0,0,1,7.3,4.18L254,528.13a48.19,48.19,0,0,1-6.9-4l7.33-39.8a53.35,53.35,0,0,1,7.45,4.27Zm-4.66,20.84,10.66-9.84-7.5-4.3Z"/><path class="cls-2" d="M248.8,480l-25,28.86a49.87,49.87,0,0,1-6.24-5.39l20.63-23.83-11.49-9.94a26.25,26.25,0,0,1,4.36-5Z"/><path class="cls-2" d="M207.59,446.14A8.36,8.36,0,1,1,196,444,8.44,8.44,0,0,1,207.59,446.14Z"/></svg>