<svg id="Laag_1" data-name="Laag 1" xmlns="http://www.w3.org/2000/svg" viewBox="0 0 1043.33 681.53"><defs><style>.cls-1{fill:#8fc36c;}.cls-2{fill:#fff;}</style></defs><path class="cls-1" d="M216.73,202.16c-43.25,5.31-78.31,45.2-78.31,89.1V569.2l689.11-84.62c43.25-5.31,78.31-45.21,78.31-89.1V117.55Z"/><path class="cls-2" d="M269.51,309v49.49a108.41,108.41,0,0,1-22,2.7V274.28a185.14,185.14,0,0,1,23.64-2.9l25.65,47.49V268.23a159.3,159.3,0,0,1,22-2.7V352.4a196.86,196.86,0,0,1-24.14,3Z"/><path class="cls-2" d="M335.62,263.47a157.41,157.41,0,0,1,22-2.7v86.86a163.43,163.43,0,0,1-22,2.7Z"/><path class="cls-2" d="M374.45,345.56V258.7L430,251.87a84.62,84.62,0,0,1,0,17.86l-33.58,4.12v16.58l32.32-4a82.18,82.18,0,0,1,0,17.6l-32.32,4v17L430,320.87a84.62,84.62,0,0,1,0,17.86Z"/><path class="cls-2" d="M493.64,244.06c5.28-1.16,17.73-2.69,21.75-2.66v64.78c0,17.61-14.08,25.34-35.21,27.93s-35.33-1.66-35.33-19.26V250.06a156.78,156.78,0,0,1,22-2.7v60.57c0,7.92,6.17,8.18,13.33,7.3s13.46-2.68,13.46-10.58Z"/><path class="cls-2" d="M584.77,263.48l-14.46,58c-6.54,1.32-14.84,2.34-21.38,3l-24.27-84.26a168.92,168.92,0,0,1,22.51-2.76l13.08,53.36,12.58-56.51a199.05,199.05,0,0,1,24.52-3l12.45,53.44L623,228.18a159.69,159.69,0,0,1,22-2.7l-24.4,89.85a151.71,151.71,0,0,1-21.25,2.61Z"/><path class="cls-2" d="M683.54,220.75a157.41,157.41,0,0,1,22-2.7v86.86a163.43,163.43,0,0,1-22,2.7Z"/><path class="cls-2" d="M744.39,250.65v49.48a109.32,109.32,0,0,1-22,2.71V216A185.17,185.17,0,0,1,746,213.07l25.65,47.5V209.93a159.36,159.36,0,0,1,22-2.71v86.86a196.89,196.89,0,0,1-24.14,3Z"/><path class="cls-2" d="M357.27,454.46c0,14.79-11.57,22.2-29.31,24.39l-36,4.41V396.4l32.82-4c18.23-2.24,29.93,2.19,29.93,16.48v5.48c0,8.81-4.28,14.43-11.95,17.79,9.06,1.19,14.47,6.14,14.47,16.86Zm-24.52-38.82c0-5.37-4.79-5.79-11.7-4.95l-7,.87v17l6.91-.85c7-.86,11.83-2.09,11.83-7.45Zm2.51,32.85c0-6.13-5.29-6.5-11.57-5.72L314,444v18.49l9.8-1.21c6.54-.8,11.45-2.8,11.45-8.41Z"/><path class="cls-2" d="M437.84,413.7c0,10.59-5.91,17.31-16.1,21.61,7,9.34,12.83,20.12,17.61,29.86A183,183,0,0,1,416.08,468a180.05,180.05,0,0,0-16.35-27.71l-6.16.76v29.71a161.15,161.15,0,0,1-22,2.7V386.63L401.62,383c22.26-2.74,36.22,1.41,36.22,17.74Zm-22-5.08c0-7.78-6.53-8-14.46-7l-7.8,1v20.29l7.8-1c7.93-1,14.46-2.8,14.46-10.46Z"/><path class="cls-2" d="M501.68,370.66A154.12,154.12,0,0,1,523.43,368v64.79c0,17.6-14.08,25.33-35.21,27.92s-35.34-1.66-35.34-19.26V376.65a160.09,160.09,0,0,1,22-2.7v60.58c0,7.91,6.16,8.17,13.32,7.29s13.46-2.66,13.46-10.57Z"/><path class="cls-2" d="M582.12,416.13l-10.19,1.25a76.46,76.46,0,0,1,0-16.84L602,396.85V443A121.51,121.51,0,0,1,575.71,450c-22.39,2.75-37.23-1.3-37.23-19.54V388.59c0-18.25,14.84-25.93,37.23-28.68a132.2,132.2,0,0,1,24.39-.7,83.3,83.3,0,0,1,0,17.86,130.85,130.85,0,0,0-20.62.87c-10.82,1.33-19,2.84-19,12.66v32c0,9.95,8.17,9.59,19,8.25a21.19,21.19,0,0,0,2.64-.46Z"/><path class="cls-2" d="M659.8,406.6l-10.18,1.25a75.26,75.26,0,0,1,0-16.84l30-3.7v46.18a120.36,120.36,0,0,1-26.28,6.93c-22.38,2.75-37.22-1.3-37.22-19.54V379.05c0-18.25,14.84-25.93,37.22-28.67a131.41,131.41,0,0,1,24.4-.71,84.62,84.62,0,0,1,0,17.86,130.93,130.93,0,0,0-20.63.87c-10.81,1.33-19,2.84-19,12.66v32c0,9.95,8.18,9.59,19,8.25a22.29,22.29,0,0,0,2.64-.45Z"/><path class="cls-2" d="M695.23,433.76V346.9l55.58-6.84a84.62,84.62,0,0,1,0,17.86L717.23,362v16.58l32.33-4a83.5,83.5,0,0,1,0,17.6l-32.33,4v17l33.58-4.12a84.53,84.53,0,0,1,0,17.85Z"/></svg>