<?xml version="1.0" ?><svg enable-background="new 0 0 100 100" height="100px" id="Layer_2" version="1.1" viewBox="0 0 100 100" width="100px" xml:space="preserve" xmlns="http://www.w3.org/2000/svg" xmlns:xlink="http://www.w3.org/1999/xlink"><path d="M82.774,51.546c-0.742-0.254-1.545,0.144-1.797,0.885l-0.611,1.816c-2.087,6.231-4.245,12.674-8.901,17.111  c-0.728,0.693-1.731,1.454-2.704,1.585c-0.1-0.017-0.202-0.025-0.308-0.02c-0.063,0.003-0.122,0.016-0.183,0.027  c-0.048-0.005-0.098-0.001-0.146-0.011c-0.722-0.142-1.431-0.765-2.091-1.418c-4.829-4.77-8.253-11.303-10.051-19.09  c2.414,0.105,4.834,0.171,7.258,0.171c3.592,0,7.186-0.115,10.752-0.345c0.78-0.051,1.372-0.724,1.322-1.504  c-0.05-0.78-0.701-1.367-1.504-1.322c-6.103,0.393-12.286,0.433-18.401,0.141c-0.139-0.797-0.267-1.602-0.373-2.421  c-0.112-0.862,0.034-1.089,0.033-1.089c0.001-0.001,0.124-0.095,0.635-0.1l24.133,0.145c0.003,0,0.006,0,0.009,0  c0.778,0,1.411-0.629,1.416-1.408c0.005-0.782-0.625-1.42-1.407-1.424l-24.134-0.145c-1.216-0.013-2.147,0.347-2.771,1.054  c-0.678,0.766-0.914,1.856-0.723,3.33c1.392,10.762,5.479,19.76,11.816,26.021c0.871,0.861,1.846,1.693,3.085,2.066  c0.151,4.722,0.01,9.481-0.422,14.185l-6.654,0.098c-0.782,0.012-1.407,0.655-1.395,1.437c0.012,0.774,0.643,1.395,1.415,1.395  c0.007,0,0.014,0,0.021,0l16.25-0.24c0.782-0.012,1.406-0.654,1.395-1.436c-0.012-0.783-0.673-1.428-1.437-1.396l-6.752,0.1  c0.421-4.701,0.558-9.451,0.41-14.168c1.135-0.338,2.291-1.057,3.458-2.169c5.164-4.922,7.436-11.703,9.633-18.261l0.607-1.805  C83.91,52.602,83.514,51.798,82.774,51.546z"/><path d="M64.696,63.771c-0.59-0.976-0.999-2.172-1.284-3.764c-0.138-0.771-0.873-1.278-1.644-1.144  c-0.769,0.138-1.281,0.874-1.144,1.644c0.349,1.945,0.873,3.448,1.649,4.73c1.023,1.692,2.496,2.922,4.148,3.468  c0.147,0.048,0.297,0.071,0.444,0.071c0.595,0,1.148-0.377,1.344-0.973c0.245-0.742-0.158-1.543-0.901-1.788  C66.298,65.681,65.37,64.885,64.696,63.771z"/><path d="M43.498,51.783c-0.781,0.034-1.386,0.696-1.351,1.478c0.459,10.245-0.225,20.684-0.886,30.779l-0.251,3.861  c-0.022,0.351-0.069,1.083-0.276,1.284c-0.189,0.183-0.829,0.244-1.136,0.274c-6.071,0.584-12.221,0.548-18.282-0.103  c-0.268-0.029-1.085-0.117-1.254-0.343c-0.123-0.165-0.138-0.708-0.147-1c-0.086-3.012-0.227-6.102-0.363-9.091  c-0.062-1.355-0.123-2.717-0.181-4.081c5.791-0.436,11.738-0.798,17.495,0.126c0.076,0.013,0.152,0.018,0.227,0.018  c0.683,0,1.284-0.495,1.396-1.191c0.124-0.772-0.401-1.499-1.173-1.622c-6.04-0.974-12.132-0.607-18.056-0.163  c-0.2-5.566-0.269-11.173,0.104-16.704l16.483,0.376c0.011,0,0.022,0,0.033,0c0.767,0,1.397-0.613,1.415-1.384  c0.018-0.782-0.601-1.43-1.383-1.448l-16.317-0.372c0.273-2.813,0.674-5.602,1.251-8.349c0.267-1.278,1.426-5.418,5.067-5.068  c0.394,0.04,0.787-0.091,1.082-0.357c0.295-0.265,0.465-0.642,0.469-1.039l0.212-21.106l6.717,0.065  c-0.06,1.389-0.103,2.778-0.123,4.158c-0.075,5.308,0.149,10.673,0.665,15.947c0.076,0.778,0.76,1.348,1.547,1.271  c0.778-0.077,1.348-0.769,1.271-1.548c-0.506-5.17-0.725-10.429-0.651-15.63c0.036-2.548,0.143-5.131,0.318-7.676l0.033-0.427  c0.112-1.378,0.264-3.265-0.898-4.482c-0.439-0.46-1.235-0.992-2.626-0.95l-5.692,0.197C26.907,7.529,26.12,8.11,25.694,8.59  c-1.215,1.366-1.042,3.456-0.902,5.135c0.036,0.438,0.072,0.844,0.069,1.181l-0.215,21.347c-3.229,0.386-5.683,3.055-6.572,7.292  c-0.686,3.272-1.129,6.585-1.409,9.918c-0.033,0.115-0.056,0.235-0.059,0.36c-0.001,0.061,0.008,0.119,0.014,0.179  c-0.653,8.334-0.273,16.789,0.103,25.047c0.136,2.977,0.276,6.054,0.361,9.043c0.02,0.69,0.049,1.731,0.709,2.614  c0.908,1.215,2.47,1.383,3.219,1.463c3.301,0.356,6.626,0.533,9.953,0.533c2.973,0,5.948-0.142,8.903-0.426  c0.724-0.07,1.935-0.186,2.837-1.06c0.992-0.963,1.079-2.325,1.131-3.137l0.25-3.856c0.666-10.171,1.355-20.69,0.889-31.091  C44.94,52.353,44.268,51.718,43.498,51.783z M27.81,10.472c0.086-0.096,0.262-0.149,0.525-0.159l5.693-0.197  c0.283-0.011,0.446,0.04,0.48,0.077c0.285,0.298,0.176,1.648,0.123,2.297l-0.035,0.46c-0.019,0.279-0.029,0.562-0.046,0.842  l-6.917-0.067c-0.006-0.079-0.011-0.153-0.018-0.233C27.534,12.534,27.402,10.932,27.81,10.472z"/></svg>