<?xml version="1.0" ?><!DOCTYPE svg  PUBLIC '-//W3C//DTD SVG 1.1//EN'  'http://www.w3.org/Graphics/SVG/1.1/DTD/svg11.dtd'><svg enable-background="new 0 0 100 100" height="100px" id="Layer_1" version="1.1" viewBox="0 0 100 100" width="100px" xml:space="preserve" xmlns="http://www.w3.org/2000/svg" xmlns:xlink="http://www.w3.org/1999/xlink"><g><path d="M48.038,44.986c0.022-0.074,0.044-0.148,0.063-0.224c0,0,0-0.001,0.001-0.002c0-0.001,0-0.002,0.001-0.003l0.065-0.267   l-0.009-0.002c0.854-3.754-1.356-7.554-5.063-8.646c-0.599-2.533-2.534-4.55-5.087-5.233c-1.839-0.495-3.758-0.24-5.403,0.711   c-1.409,0.813-2.475,2.055-3.062,3.545c-2.273-0.598-4.612,0.671-5.377,2.856c-2.847-0.306-5.59,1.507-6.355,4.364   c-0.574,2.146,0.125,4.398,1.703,5.87l-0.011,0.012c0.041,0.038,0.088,0.069,0.13,0.106c0.072,0.063,0.147,0.123,0.223,0.184   c0.071,0.056,0.137,0.117,0.209,0.17l-0.947,3.536l-8.646-2.316c-0.434-0.116-0.88-0.175-1.326-0.175   c-2.346,0-4.408,1.587-5.017,3.858L0.506,66.854c-0.754,2.814-0.36,5.752,1.106,8.273c1.44,2.473,3.74,4.228,6.478,4.94   l3.299,0.858c-0.27,1.521-0.009,3.073,0.76,4.428c0.868,1.53,2.273,2.622,3.955,3.072l17.341,4.646   c0.556,0.149,1.115,0.221,1.666,0.221c2.891,0,5.554-1.96,6.346-4.917l9.896-36.934l-0.03-0.008l0.04-0.148   C51.979,48.982,50.42,46.186,48.038,44.986z M19.744,42.604c0.507-1.893,2.319-3.082,4.202-2.882   c0.089,0.78,0.377,1.532,0.863,2.183l1.602-1.199c-0.418-0.558-0.565-1.25-0.444-1.928c-0.002-0.001-0.003-0.003-0.005-0.004   c0.012-0.069,0.019-0.138,0.037-0.207c0.355-1.328,1.726-2.119,3.053-1.763c0.149,0.04,0.285,0.111,0.423,0.178   c0.771,0.372,1.325,1.111,1.412,1.98l1.99-0.199c-0.116-1.157-0.682-2.203-1.529-2.94c0.402-1.166,1.181-2.147,2.259-2.77   c1.184-0.685,2.563-0.866,3.886-0.512c1.967,0.526,3.417,2.155,3.729,4.16c0.108,0.7,0.074,1.428-0.109,2.112   c-0.128,0.481-0.327,0.941-0.591,1.367l1.701,1.053c0.366-0.593,0.643-1.233,0.822-1.903c0.112-0.421,0.177-0.854,0.211-1.291   c2.309,1.064,3.594,3.669,2.914,6.205c-0.072,0.271-0.174,0.533-0.286,0.786c-0.264,0.591-0.627,1.135-1.086,1.595l1.417,1.412   c0.371-0.373,0.688-0.791,0.97-1.231c1.167,0.605,2.077,1.793,2.277,2.936l-3.605-0.967l-0.519,1.932l0,0l-2.07,7.729   c-0.069,0.256-0.234,0.471-0.468,0.605c-0.231,0.134-0.501,0.17-0.758,0.102c-0.256-0.068-0.471-0.234-0.604-0.467   c-0.135-0.232-0.171-0.502-0.103-0.758l2.331-8.696l0.259-0.966c-2.455-0.659-5.244-1.439-8.038-2.221   c-2.88-0.806-5.766-1.613-8.297-2.291l-0.245,0.914l-0.008-0.002c-0.568,2.082-2.728,3.324-4.812,2.765   c-0.598-0.16-1.148-0.467-1.606-0.88C19.839,45.567,19.357,44.048,19.744,42.604z M3.341,74.12   c-1.197-2.057-1.518-4.453-0.903-6.749l3.624-13.522c0.375-1.399,1.644-2.376,3.085-2.376c0.271,0,0.544,0.036,0.809,0.106   l8.646,2.316l-0.51,1.905l-6.772-1.785c-0.278-0.073-0.56-0.111-0.838-0.111c-1.363,0-2.476,0.864-2.833,2.202L5.06,65.798   c-1.304,4.88,1.36,9.512,6.334,11.013l0.988,0.299l-0.503,1.878l-3.285-0.855C6.376,77.555,4.511,76.13,3.341,74.12z    M17.574,57.732L12.9,75.177l-0.929-0.28c-3.963-1.196-6.01-4.726-4.979-8.583l2.589-9.69c0.15-0.563,0.639-0.826,1.228-0.674   L17.574,57.732z M39.524,87.858c-0.658,2.456-3.157,3.926-5.563,3.282l-17.341-4.646c-1.16-0.311-2.131-1.066-2.732-2.127   c-0.604-1.066-0.763-2.308-0.444-3.496l1.176-4.386l0.195-0.731l0,0l4.692-17.511l0.068,0.018l1.222-4.834l0.512-1.91l16.421,4.399   l0.518-1.932l-16.421-4.399l0.072-0.27c0.036,0.011,0.071,0.026,0.108,0.036c0.511,0.137,1.023,0.202,1.53,0.202   c2.267,0,4.373-1.314,5.358-3.385c2.048,0.56,4.249,1.175,6.452,1.791c2.091,0.585,4.18,1.169,6.128,1.703l-2.073,7.736   c-0.207,0.771-0.1,1.58,0.302,2.275s1.048,1.192,1.819,1.398c0.258,0.069,0.519,0.104,0.778,0.104c0.521,0,1.034-0.137,1.498-0.405   c0.695-0.401,1.191-1.048,1.398-1.819l2.07-7.729l1.932,0.519L39.524,87.858z"/><rect height="21" transform="matrix(0.9659 0.2588 -0.2588 0.9659 18.3385 -2.8353)" width="2" x="18.938" y="57.73"/><rect height="2" transform="matrix(-0.2588 0.9659 -0.9659 -0.2588 101.2649 62.3813)" width="21.001" x="16.199" y="69.042"/><rect height="2" transform="matrix(-0.2588 0.9659 -0.9659 -0.2588 111.525 58.1316)" width="21" x="22.96" y="70.853"/><rect height="21.001" transform="matrix(-0.9659 -0.2588 0.2588 -0.9659 60.0061 155.23)" width="2" x="39.221" y="63.165"/><rect height="2" transform="matrix(-0.9659 -0.2588 0.2588 -0.9659 30.5338 171.9998)" width="23.01" x="15.085" y="82.99"/><path d="M99.494,52.958l-3.623-13.522c-0.609-2.272-2.673-3.858-5.018-3.858c-0.446,0-0.892,0.059-1.325,0.175l-8.647,2.316   l-0.948-3.541c0.074-0.055,0.146-0.113,0.217-0.171c0.058-0.046,0.118-0.088,0.174-0.135c0.019-0.017,0.039-0.029,0.058-0.046   l-0.006-0.007c1.659-1.467,2.401-3.781,1.813-5.978c-0.41-1.531-1.392-2.811-2.764-3.603c-1.101-0.635-2.344-0.894-3.591-0.763   c-0.021-0.058-0.053-0.109-0.075-0.166c-0.022-0.058-0.037-0.119-0.063-0.176c-0.004,0.003-0.009,0.005-0.014,0.008   c-0.383-0.861-1.01-1.587-1.842-2.067c-1.032-0.595-2.229-0.755-3.385-0.455c-0.587-1.491-1.652-2.731-3.061-3.545   c-1.646-0.951-3.566-1.206-5.403-0.711c-2.182,0.584-3.903,2.145-4.734,4.165l-0.006-0.002c-0.006,0.015-0.008,0.029-0.014,0.044   c-0.135,0.332-0.25,0.673-0.334,1.027c-3.705,1.089-5.918,4.891-5.063,8.646l-0.009,0.002l0.066,0.265   c0,0.003,0.001,0.006,0.001,0.008c0.021,0.074,0.042,0.148,0.063,0.222c-2.381,1.2-3.94,3.998-3.323,6.301l0.039,0.148   l-0.029,0.008l9.896,36.934c0.793,2.957,3.455,4.917,6.346,4.917c0.551,0,1.11-0.071,1.666-0.221l17.341-4.646   c1.682-0.45,3.087-1.542,3.955-3.072c0.769-1.354,1.029-2.907,0.76-4.428l3.299-0.858c2.737-0.713,5.038-2.467,6.478-4.94   C99.855,58.711,100.248,55.772,99.494,52.958z M52.815,32.91c0.281,0.44,0.599,0.858,0.971,1.231l1.416-1.412   c-0.458-0.46-0.821-1.003-1.084-1.591c-0.113-0.253-0.213-0.516-0.287-0.787l-0.003-0.01c-0.675-2.535,0.61-5.135,2.918-6.197   c0.033,0.435,0.096,0.866,0.209,1.289c0.18,0.671,0.456,1.312,0.822,1.904l1.701-1.053c-0.263-0.426-0.462-0.886-0.591-1.368   c-0.203-0.755-0.216-1.549-0.066-2.313c0.018-0.092,0.035-0.184,0.059-0.273c0.045-0.179,0.104-0.354,0.168-0.528   c0.57-1.53,1.835-2.722,3.461-3.157c2.61-0.697,5.275,0.771,6.143,3.282c-0.846,0.737-1.411,1.782-1.528,2.938l1.99,0.201   c0.068-0.676,0.416-1.279,0.928-1.691c0.001-0.014,0.005-0.028,0.006-0.042l0.279-0.165c0.193-0.114,0.403-0.202,0.622-0.261   c1.327-0.354,2.699,0.436,3.054,1.763c0.199,0.743,0.049,1.523-0.412,2.139l1.602,1.199c0.487-0.65,0.775-1.403,0.863-2.184   c0.818-0.087,1.642,0.074,2.368,0.495c0.91,0.525,1.561,1.374,1.833,2.389c0.394,1.468-0.107,3.017-1.226,3.986   c-0.447,0.387-0.982,0.675-1.556,0.829c-2.023,0.545-4.098-0.614-4.741-2.582l-0.264-0.983l-16.395,4.4l0.26,0.966l2.33,8.696   c0.068,0.256,0.031,0.525-0.103,0.758s-0.349,0.398-0.605,0.467c-0.253,0.068-0.524,0.033-0.757-0.102s-0.398-0.35-0.467-0.605   l-2.071-7.729h0.001l-0.52-1.932l-3.604,0.967C50.738,34.703,51.648,33.516,52.815,32.91z M86.111,70.472   c-0.602,1.061-1.572,1.816-2.732,2.127l-17.341,4.646c-2.407,0.642-4.904-0.826-5.563-3.282l-9.677-36.116l1.932-0.519l2.071,7.729   c0.206,0.771,0.703,1.418,1.398,1.819c0.463,0.269,0.978,0.405,1.497,0.405c0.26,0,0.521-0.034,0.777-0.104   c0.772-0.206,1.419-0.703,1.82-1.398s0.509-1.503,0.302-2.275l-2.072-7.731l12.64-3.393c1.007,2.006,3.072,3.278,5.298,3.278   c0.506,0,1.02-0.065,1.53-0.202c0.037-0.01,0.072-0.025,0.109-0.036l0.071,0.27l-16.421,4.399l0.518,1.932l16.421-4.399   l0.514,1.915l1.221,4.829l0.068-0.018l4.691,17.511l0,0l0.201,0.752l1.17,4.365C86.874,68.164,86.716,69.405,86.111,70.472z    M82.427,43.837l6.765-1.783c0.587-0.154,1.078,0.111,1.229,0.673l2.589,9.691c1.029,3.857-1.019,7.387-4.98,8.583l-0.928,0.28   L82.427,43.837z M96.659,60.226c-1.17,2.009-3.035,3.434-5.253,4.011l-3.284,0.855l-0.504-1.878l0.988-0.299   c4.974-1.5,7.638-6.132,6.334-11.013l-2.589-9.692c-0.357-1.337-1.47-2.2-2.833-2.2c-0.278,0-0.56,0.037-0.837,0.11l-6.772,1.785   L81.398,40l8.647-2.316c1.673-0.44,3.447,0.607,3.894,2.27l3.623,13.522C98.178,55.771,97.856,58.168,96.659,60.226z"/><rect height="2" transform="matrix(0.2588 0.9659 -0.9659 0.2588 111.8221 -37.0634)" width="21" x="69.563" y="53.335"/><rect height="2" transform="matrix(0.2588 0.9659 -0.9659 0.2588 108.5661 -29.1876)" width="21.001" x="62.801" y="55.147"/><rect height="2" transform="matrix(0.2588 0.9659 -0.9659 0.2588 105.3047 -21.3144)" width="21.001" x="56.04" y="56.958"/><rect height="21.001" transform="matrix(0.9659 -0.2588 0.2588 0.9659 -13.4325 17.5085)" width="2" x="58.779" y="49.269"/><rect height="23.011" transform="matrix(-0.2588 -0.9659 0.9659 -0.2588 24.7041 159.1447)" width="2" x="72.41" y="58.589"/><rect height="2" transform="matrix(0.3003 0.9538 -0.9538 0.3003 43.8133 -29.9156)" width="16.562" x="34.016" y="13.906"/><rect height="2.001" transform="matrix(0.9029 0.4298 -0.4298 0.9029 12.5323 -12.9213)" width="13.004" x="28.369" y="20.282"/><rect height="13.003" transform="matrix(0.903 0.4297 -0.4297 0.903 11.7234 -20.8657)" width="2" x="51.06" y="9.022"/></g></svg>