<?xml version="1.0" ?><svg data-name="Layer 1" id="Layer_1" viewBox="0 0 64 64" xmlns="http://www.w3.org/2000/svg"><title/><path d="M17.13,33,16,16.22a1,1,0,0,1,.27-.75,1,1,0,0,1,.72-.32L39,15l0,2-20.93.11,1.05,15.69Z"/><rect height="2" transform="translate(-0.09 0.23) rotate(-0.31)" width="2" x="41" y="15.03"/><path d="M46.72,35.24l-2-.14L45.93,17H45l0-2h2a1.09,1.09,0,0,1,.74.31,1,1,0,0,1,.27.76Z"/><path d="M30,48.56l-2-.09a10.4,10.4,0,0,0-3.53-8.29l-.29-.26a3.45,3.45,0,0,0-4.52-.06l-1.91,1.59a2.7,2.7,0,0,1-1.74.63v-2a.75.75,0,0,0,.46-.16l1.91-1.6a5.44,5.44,0,0,1,7.12.1l.29.26A12.4,12.4,0,0,1,30,48.56Z"/><path d="M12.07,61.94a7,7,0,0,1-3.91-1.19A12.47,12.47,0,0,1,3,53.51L2.4,51.15A12.39,12.39,0,0,1,6.22,38.68l.29-.26A5.45,5.45,0,0,1,8.87,37.2l.46,1.94a3.49,3.49,0,0,0-1.5.78l-.29.26A10.41,10.41,0,0,0,4.33,50.64L5,53a10.41,10.41,0,0,0,4.32,6.08,5,5,0,0,0,5.26.21l1,1.74A7,7,0,0,1,12.07,61.94Z"/><path d="M17,41.1H15a17,17,0,0,1,3.56-10.38l.13-.16,1.58,1.23-.13.15A15,15,0,0,0,17,41.1Z"/><path d="M16,42.1a9.94,9.94,0,0,1-9.94-9.93,1,1,0,0,1,1-1A9.94,9.94,0,0,1,17,41.1,1,1,0,0,1,16,42.1ZM8.13,33.24A8,8,0,0,0,14.93,40,8,8,0,0,0,8.13,33.24Z"/><path d="M35,58.41v-2a21.16,21.16,0,0,0,8.64-1.82A21.46,21.46,0,0,0,56.41,35h2a23.46,23.46,0,0,1-14,21.42A23.19,23.19,0,0,1,35,58.41Z"/><path d="M35,62H21.81V60H35A25,25,0,0,0,60,36H45V34H61a1,1,0,0,1,1,1A27,27,0,0,1,35,62Z"/><path d="M22.36,61.93c-.38,0-.77,0-1.15,0a24.43,24.43,0,0,1-11.13-3.28l-.14-.08a1,1,0,0,1-.49-.87V54a1,1,0,0,1,.92-1l4.43-.33A26.52,26.52,0,0,0,38.94,30.82a2.86,2.86,0,0,1,3.92-2.19l1.5.63h0a3.33,3.33,0,0,1,2.06,3.09v4.19a27.11,27.11,0,0,1-4.65,15.23A23.2,23.2,0,0,1,22.36,61.93ZM11.45,57.09a22.32,22.32,0,0,0,9.85,2.82,21.25,21.25,0,0,0,18.81-9.26,25.09,25.09,0,0,0,4.31-14.11V32.35a1.35,1.35,0,0,0-.83-1.25l-1.5-.62a.83.83,0,0,0-.73,0,.91.91,0,0,0-.45.64A28.51,28.51,0,0,1,15,54.69l-3.5.27Z"/><path d="M18.49,26.87l-1-1.74,3.72-2.07a13,13,0,0,1,11.68-.47,11.08,11.08,0,0,0,9.89-.4l3.71-2.06,1,1.74-3.72,2.07a13,13,0,0,1-11.68.47,11.08,11.08,0,0,0-9.89.4Z"/><path d="M33,23H31V10a1,1,0,0,1,.46-.84l11-7,1.08,1.68L33,10.55Z"/><rect height="2" width="2" x="48" y="38"/><rect height="2" width="2" x="45" y="48"/><rect height="2" width="2" x="48" y="44"/></svg>