<?xml version="1.0" ?><svg viewBox="0 0 64 64" xmlns="http://www.w3.org/2000/svg"><title/><g data-name="outline creat" id="outline_creat"><path d="M38.146,59.792a3.008,3.008,0,0,0,3,3.208H54.992a3.008,3.008,0,0,0,3-3.208,31.785,31.785,0,0,0-1.556-7.852l-.349-1.047L57.3,40a41.858,41.858,0,0,0-3.671-21.785l-.841-1.851a8.055,8.055,0,0,1-.717-3.309V9a2,2,0,0,0,2-2V5a2,2,0,0,0-2-2h-8a2,2,0,0,0-2,2V7a2,2,0,0,0,2,2v4.051a8.07,8.07,0,0,1-.716,3.309l-.841,1.851a41.838,41.838,0,0,0-3.671,21.78l1.21,10.9L39.7,51.94A31.739,31.739,0,0,0,38.146,59.792ZM44.069,5h8V7h-8Zm.263,14.039.841-1.851a10.057,10.057,0,0,0,.9-4.137V9h4v4.051a10.058,10.058,0,0,0,.9,4.137l.841,1.851A42.386,42.386,0,0,1,53.978,25H42.161A42.261,42.261,0,0,1,44.332,19.039ZM41.635,27H54.5a38.757,38.757,0,0,1,.935,11H40.7A38.727,38.727,0,0,1,41.635,27ZM41.6,52.573l.419-1.257a1.009,1.009,0,0,0,.045-.426L40.854,40H55.286L54.075,50.89a1.01,1.01,0,0,0,.046.426l.419,1.257A29.844,29.844,0,0,1,56,59.931a.98.98,0,0,1-.267.747,1,1,0,0,1-.738.322H53.069V59h-2v2h-2V59h-2v2h-2V59h-2v2H41.147a1,1,0,0,1-.739-.322.983.983,0,0,1-.266-.747A29.8,29.8,0,0,1,41.6,52.573Z"/><rect height="2" width="4" x="44.069" y="50"/><rect height="2" width="2" x="50.069" y="50"/><path d="M31.565,8.868l-.992-1.736-7,4a1,1,0,0,0-.5.8L22.139,25H6.069a1,1,0,0,0-1,1v4c0,.017.009.03.01.047s-.007.031-.006.047l3,32a1,1,0,0,0,1,.906h15a1,1,0,0,0,1-.906l3-32c0-.016-.006-.031-.005-.047s.009-.03.009-.047V26a1,1,0,0,0-1-1H24.143l.885-12.4ZM24.6,45.622a1.456,1.456,0,0,1-.532-1.122,1.5,1.5,0,0,1,.759-1.3Zm.428-4.567a3.483,3.483,0,0,0-.631,6.729L23.159,61H9.979L7.167,31H25.972ZM26.069,27v2h-19V27Z"/><path d="M13.569,41a3.5,3.5,0,1,0-3.5-3.5A3.5,3.5,0,0,0,13.569,41Zm0-5a1.5,1.5,0,1,1-1.5,1.5A1.5,1.5,0,0,1,13.569,36Z"/><path d="M14.069,52a3,3,0,1,0,3-3A3,3,0,0,0,14.069,52Zm4,0a1,1,0,1,1-1-1A1,1,0,0,1,18.069,52Z"/><circle cx="22.069" cy="34" r="1"/></g></svg>